G04*
G04 #@! TF.GenerationSoftware,Altium Limited,Altium Designer,20.0.13 (296)*
G04*
G04 Layer_Physical_Order=1*
G04 Layer_Color=255*
%FSLAX25Y25*%
%MOIN*%
G70*
G01*
G75*
%ADD12C,0.00500*%
%ADD13C,0.01000*%
%ADD18C,0.00700*%
%ADD19C,0.01378*%
%ADD30R,0.02165X0.03150*%
%ADD41C,0.07087*%
%ADD47R,0.02756X0.04528*%
%ADD48R,0.03000X0.03937*%
%ADD49R,0.10236X0.12598*%
%ADD50R,0.08661X0.11024*%
%ADD51R,0.07874X0.11024*%
%ADD52R,0.11024X0.11024*%
%ADD53R,0.03937X0.03000*%
%ADD54R,0.06614X0.07402*%
%ADD55R,0.03543X0.01201*%
%ADD56R,0.08661X0.03543*%
%ADD57R,0.07087X0.03150*%
%ADD58R,0.03740X0.03347*%
%ADD59R,0.05512X0.05118*%
%ADD60R,0.03937X0.03543*%
%ADD61C,0.02000*%
%ADD62C,0.05000*%
%ADD63C,0.03937*%
%ADD64C,0.04500*%
%ADD65C,0.03150*%
%ADD66C,0.02756*%
%ADD67C,0.00701*%
%ADD68O,0.05512X0.08268*%
%ADD69C,0.08858*%
%ADD70R,0.05906X0.05906*%
%ADD71C,0.05906*%
%ADD72C,0.16535*%
%ADD73C,0.06201*%
%ADD74C,0.06693*%
%ADD75C,0.02559*%
%ADD76C,0.02205*%
%ADD77C,0.05000*%
%ADD78C,0.05118*%
G36*
X387099Y377968D02*
X387335Y377870D01*
X387548Y377728D01*
X387728Y377548D01*
X387870Y377335D01*
X387968Y377099D01*
X388018Y376849D01*
Y376721D01*
Y3329D01*
Y3201D01*
X387968Y2951D01*
X387870Y2715D01*
X387728Y2502D01*
X387548Y2322D01*
X387335Y2180D01*
X387099Y2082D01*
X386849Y2032D01*
X13329D01*
X12589Y2032D01*
X11120Y2225D01*
X9690Y2609D01*
X8322Y3175D01*
X7039Y3916D01*
X5864Y4817D01*
X4817Y5864D01*
X3916Y7039D01*
X3175Y8322D01*
X2609Y9690D01*
X2225Y11120D01*
X2032Y12589D01*
Y13329D01*
Y366721D01*
Y367461D01*
X2225Y368930D01*
X2609Y370360D01*
X3175Y371728D01*
X3916Y373011D01*
X4817Y374186D01*
X5864Y375233D01*
X7039Y376134D01*
X8322Y376875D01*
X9690Y377441D01*
X11120Y377825D01*
X12589Y378018D01*
X386849D01*
X387099Y377968D01*
D02*
G37*
%LPC*%
G36*
X374303Y373074D02*
X372582Y372904D01*
X370927Y372402D01*
X369402Y371587D01*
X368065Y370490D01*
X366968Y369153D01*
X366153Y367628D01*
X365651Y365973D01*
X365481Y364252D01*
X365651Y362531D01*
X366153Y360876D01*
X366968Y359351D01*
X368065Y358014D01*
X369402Y356917D01*
X370927Y356101D01*
X372582Y355599D01*
X374303Y355430D01*
X376024Y355599D01*
X377679Y356101D01*
X379204Y356917D01*
X380541Y358014D01*
X381638Y359351D01*
X382454Y360876D01*
X382956Y362531D01*
X383125Y364252D01*
X382956Y365973D01*
X382454Y367628D01*
X381638Y369153D01*
X380541Y370490D01*
X379204Y371587D01*
X377679Y372402D01*
X376024Y372904D01*
X374303Y373074D01*
D02*
G37*
G36*
X15748D02*
X14027Y372904D01*
X12372Y372402D01*
X10847Y371587D01*
X9510Y370490D01*
X8413Y369153D01*
X7598Y367628D01*
X7096Y365973D01*
X6926Y364252D01*
X7096Y362531D01*
X7598Y360876D01*
X8413Y359351D01*
X9510Y358014D01*
X10847Y356917D01*
X12372Y356101D01*
X14027Y355599D01*
X15748Y355430D01*
X17469Y355599D01*
X19124Y356101D01*
X20649Y356917D01*
X21986Y358014D01*
X23083Y359351D01*
X23899Y360876D01*
X24400Y362531D01*
X24570Y364252D01*
X24400Y365973D01*
X23899Y367628D01*
X23083Y369153D01*
X21986Y370490D01*
X20649Y371587D01*
X19124Y372402D01*
X17469Y372904D01*
X15748Y373074D01*
D02*
G37*
G36*
X223110Y292184D02*
X211360D01*
X211258Y292142D01*
X211148Y292142D01*
X211070Y292064D01*
X210968Y292022D01*
X210959Y291998D01*
X210882Y291921D01*
X210858Y291912D01*
X210816Y291810D01*
X210738Y291732D01*
X210738Y291622D01*
X210696Y291520D01*
Y266154D01*
X210728Y266075D01*
X210720Y265991D01*
X210860Y265537D01*
X210878Y265515D01*
Y265487D01*
X211010Y265355D01*
X211064Y265290D01*
X211069Y265278D01*
X211076Y265275D01*
X211130Y265210D01*
X211158Y265207D01*
X211177Y265188D01*
X211248Y265158D01*
X211358D01*
X211460Y265116D01*
X215401D01*
Y248973D01*
X214048Y247620D01*
X195678D01*
X195088Y247502D01*
X194588Y247168D01*
X194588Y247168D01*
X191010Y243590D01*
X190676Y243090D01*
X190559Y242500D01*
X190559Y242500D01*
Y232241D01*
X189620D01*
Y227674D01*
X194580D01*
Y232241D01*
X193641D01*
Y241862D01*
X196317Y244537D01*
X214686D01*
X214686Y244537D01*
X215276Y244654D01*
X215776Y244988D01*
X218032Y247244D01*
X218032Y247244D01*
X218367Y247744D01*
X218484Y248334D01*
X218484Y248334D01*
Y265116D01*
X223400D01*
X223502Y265158D01*
X223612Y265158D01*
X223690Y265236D01*
X223792Y265278D01*
X223801Y265302D01*
X223878Y265379D01*
X223902Y265388D01*
X223944Y265490D01*
X224022Y265568D01*
X224022Y265678D01*
X224064Y265780D01*
Y291230D01*
X223902Y291621D01*
X223501Y292022D01*
X223224Y292137D01*
X223110Y292184D01*
D02*
G37*
G36*
X54880Y283861D02*
X53873Y283729D01*
X52934Y283340D01*
X52128Y282722D01*
X51510Y281916D01*
X51121Y280977D01*
X50989Y279970D01*
X51121Y278963D01*
X51510Y278024D01*
X52128Y277218D01*
X52934Y276600D01*
X53873Y276211D01*
X54880Y276079D01*
X55887Y276211D01*
X56826Y276600D01*
X57632Y277218D01*
X58250Y278024D01*
X58639Y278963D01*
X58772Y279970D01*
X58639Y280977D01*
X58250Y281916D01*
X57632Y282722D01*
X56826Y283340D01*
X55887Y283729D01*
X54880Y283861D01*
D02*
G37*
G36*
X27321D02*
X26314Y283729D01*
X25375Y283340D01*
X24569Y282722D01*
X23951Y281916D01*
X23562Y280977D01*
X23429Y279970D01*
X23562Y278963D01*
X23951Y278024D01*
X24569Y277218D01*
X25375Y276600D01*
X26314Y276211D01*
X27321Y276079D01*
X28328Y276211D01*
X29267Y276600D01*
X30073Y277218D01*
X30691Y278024D01*
X31080Y278963D01*
X31212Y279970D01*
X31080Y280977D01*
X30691Y281916D01*
X30073Y282722D01*
X29267Y283340D01*
X28328Y283729D01*
X27321Y283861D01*
D02*
G37*
G36*
X298054Y344333D02*
X297111Y344209D01*
X296232Y343845D01*
X295751Y343476D01*
X266690D01*
X266330Y343428D01*
X265969Y343381D01*
X265297Y343102D01*
X264720Y342660D01*
X258830Y336770D01*
X258388Y336193D01*
X258109Y335521D01*
X258104Y335480D01*
X257952Y335114D01*
X257905Y334754D01*
X257857Y334393D01*
Y278811D01*
X255013D01*
Y265189D01*
X266273D01*
Y278811D01*
X263429D01*
Y333489D01*
X267844Y337904D01*
X295751D01*
X296232Y337535D01*
X297111Y337171D01*
X298054Y337047D01*
X298997Y337171D01*
X299876Y337535D01*
X300358Y337904D01*
X327156D01*
X332314Y332746D01*
Y285540D01*
X332362Y285179D01*
X332409Y284819D01*
X332688Y284147D01*
X333130Y283570D01*
X339820Y276880D01*
X340397Y276438D01*
X341069Y276159D01*
X341429Y276112D01*
X341790Y276064D01*
X351304D01*
X351870Y275326D01*
X352902Y274534D01*
X354104Y274036D01*
X355394Y273866D01*
X356684Y274036D01*
X357886Y274534D01*
X358918Y275326D01*
X359710Y276358D01*
X360208Y277560D01*
X360378Y278850D01*
X360208Y280140D01*
X359710Y281342D01*
X358918Y282374D01*
X357886Y283166D01*
X356684Y283664D01*
X355394Y283834D01*
X354104Y283664D01*
X352902Y283166D01*
X351870Y282374D01*
X351304Y281636D01*
X342944D01*
X337886Y286694D01*
Y333900D01*
X337791Y334621D01*
X337512Y335293D01*
X337070Y335870D01*
X330280Y342660D01*
X329703Y343102D01*
X329031Y343381D01*
X328671Y343428D01*
X328310Y343476D01*
X300358D01*
X299876Y343845D01*
X298997Y344209D01*
X298054Y344333D01*
D02*
G37*
G36*
X35313Y300561D02*
X25628D01*
Y288513D01*
X29688D01*
Y286320D01*
X29767Y285925D01*
X29991Y285591D01*
X43764Y271816D01*
X43704Y271510D01*
X43843Y270811D01*
X44238Y270218D01*
X44831Y269823D01*
X45530Y269684D01*
X46229Y269823D01*
X46821Y270218D01*
X47217Y270811D01*
X47356Y271510D01*
X47217Y272209D01*
X46821Y272801D01*
X46229Y273197D01*
X45530Y273336D01*
X45224Y273275D01*
X31752Y286747D01*
Y288513D01*
X35313D01*
Y300561D01*
D02*
G37*
G36*
X355394Y268834D02*
X354104Y268664D01*
X352902Y268166D01*
X351870Y267374D01*
X351451Y266828D01*
X339902D01*
X339115Y266724D01*
X338383Y266421D01*
X337754Y265938D01*
X331952Y260137D01*
X331469Y259507D01*
X331166Y258775D01*
X331062Y257988D01*
Y209658D01*
X325942Y204538D01*
X300029D01*
X299876Y204655D01*
X298997Y205019D01*
X298054Y205143D01*
X297111Y205019D01*
X296232Y204655D01*
X296079Y204538D01*
X268258D01*
X264088Y208708D01*
Y210189D01*
X266034D01*
Y223811D01*
X254775D01*
Y210189D01*
X258012D01*
Y207450D01*
X258116Y206664D01*
X258419Y205931D01*
X258902Y205302D01*
X264852Y199352D01*
X265481Y198869D01*
X266214Y198566D01*
X267000Y198462D01*
X296079D01*
X296232Y198345D01*
X297111Y197981D01*
X298054Y197857D01*
X298997Y197981D01*
X299876Y198345D01*
X300029Y198462D01*
X327200D01*
X327986Y198566D01*
X328719Y198869D01*
X329348Y199352D01*
X336248Y206252D01*
X336731Y206881D01*
X337034Y207614D01*
X337138Y208400D01*
Y256730D01*
X341160Y260752D01*
X351543D01*
X351870Y260326D01*
X352902Y259534D01*
X354104Y259036D01*
X355394Y258866D01*
X356684Y259036D01*
X357886Y259534D01*
X358918Y260326D01*
X359710Y261358D01*
X360208Y262560D01*
X360378Y263850D01*
X360208Y265140D01*
X359710Y266342D01*
X358918Y267374D01*
X357886Y268166D01*
X356684Y268664D01*
X355394Y268834D01*
D02*
G37*
G36*
X176428Y253431D02*
X168120Y253424D01*
X167680D01*
X167578Y253382D01*
X167468Y253382D01*
X167390Y253349D01*
X167390Y253349D01*
X167390D01*
X167312Y253272D01*
X167288Y253262D01*
X167279Y253238D01*
X167202Y253161D01*
X167178Y253151D01*
X167168Y253128D01*
X167090Y253050D01*
Y253050D01*
X167090Y253050D01*
X167058Y252972D01*
Y252862D01*
X167016Y252760D01*
Y207100D01*
X167006Y207090D01*
X166974Y207012D01*
X166974Y206902D01*
X166964Y206878D01*
X166974Y206854D01*
Y206746D01*
X166964Y206722D01*
X166974Y206698D01*
X166974Y206588D01*
X167006Y206510D01*
X167084Y206432D01*
X167126Y206330D01*
X168940Y204516D01*
X169033Y204478D01*
X169034Y204477D01*
X169043Y204473D01*
X169120Y204396D01*
X169213Y204358D01*
X169307Y204318D01*
X169417Y204318D01*
X169519Y204276D01*
X186396Y204227D01*
Y175694D01*
X169410D01*
X169308Y175652D01*
X169198D01*
X169010Y175574D01*
X168932Y175496D01*
X168830Y175454D01*
X167080Y173704D01*
X167038Y173602D01*
X166960Y173524D01*
X166882Y173336D01*
Y173226D01*
X166840Y173124D01*
Y120844D01*
X124750Y78754D01*
X114181D01*
X114153Y78742D01*
X114124Y78751D01*
X113677Y78705D01*
X100352D01*
X99960Y78542D01*
X94306Y72889D01*
X94066D01*
Y72479D01*
X94024Y72377D01*
Y69208D01*
X94066Y69106D01*
Y66727D01*
Y62790D01*
X98633D01*
Y63024D01*
X99454D01*
X103518Y58959D01*
Y52912D01*
X101916D01*
Y51679D01*
X99480D01*
Y52812D01*
X94520D01*
Y48788D01*
X99480D01*
Y49921D01*
X101916D01*
Y48888D01*
X106877D01*
Y50339D01*
X109118D01*
Y49033D01*
X113882D01*
Y53403D01*
X109118D01*
Y52097D01*
X106877D01*
Y52912D01*
X105275D01*
Y59323D01*
X105208Y59660D01*
X105018Y59945D01*
X105018Y59945D01*
X100471Y64492D01*
X100483Y64627D01*
X100638Y64992D01*
X106475D01*
X111958Y59508D01*
X112244Y59318D01*
X112580Y59251D01*
X117908D01*
X119547Y57612D01*
X119443Y57112D01*
X118020D01*
Y53088D01*
X122980D01*
Y57112D01*
X121379D01*
Y57902D01*
X121312Y58239D01*
X121122Y58524D01*
X118894Y60752D01*
X118609Y60942D01*
X118272Y61009D01*
X112944D01*
X107493Y66460D01*
X107505Y66597D01*
X107661Y66960D01*
X113988D01*
Y64320D01*
X118012D01*
Y69280D01*
X113988D01*
Y68718D01*
X100509D01*
X100302Y69218D01*
X104480Y73397D01*
X125481D01*
X125728Y73294D01*
X126095Y73446D01*
X129090D01*
X129192Y73488D01*
X129302D01*
X129490Y73566D01*
X129568Y73644D01*
X129670Y73686D01*
X141134Y85151D01*
X141134Y85151D01*
X152538Y96555D01*
X152538Y96555D01*
X152538Y96555D01*
X152676Y96693D01*
X166584D01*
X202929Y60348D01*
X202976Y60300D01*
Y30300D01*
X203018Y30198D01*
X203018Y30088D01*
X203096Y29900D01*
X203174Y29822D01*
X203216Y29720D01*
X205088Y27848D01*
X206960Y25976D01*
X207062Y25934D01*
X207140Y25856D01*
X207328Y25778D01*
X207438D01*
X207540Y25736D01*
X214400D01*
X214502Y25778D01*
X214612Y25778D01*
X214800Y25856D01*
X214878Y25934D01*
X214980Y25976D01*
X218124Y29120D01*
X218166Y29222D01*
X218244Y29300D01*
X218322Y29488D01*
Y29598D01*
X218364Y29700D01*
Y64460D01*
X218322Y64562D01*
Y64672D01*
X218244Y64860D01*
X218166Y64938D01*
X218124Y65040D01*
X190964Y92199D01*
Y111856D01*
X198450D01*
X198552Y111898D01*
X198662D01*
X198850Y111976D01*
X198928Y112054D01*
X199030Y112096D01*
X200834Y113900D01*
X200870Y113989D01*
X200870Y113989D01*
X200876Y114002D01*
X200954Y114080D01*
X201032Y114268D01*
X201032Y114378D01*
X201074Y114480D01*
X201076Y131248D01*
X201038Y131341D01*
X201038Y131341D01*
Y131343D01*
X201034Y131352D01*
X201034Y131460D01*
X200995Y131553D01*
X200995Y131553D01*
X200958Y131645D01*
X200882Y131722D01*
X200878Y131732D01*
X200876Y131733D01*
X200839Y131825D01*
X198911Y133782D01*
X198818Y133821D01*
X198817Y133822D01*
X198817Y133822D01*
X198816Y133824D01*
X198804Y133828D01*
X198728Y133905D01*
X198638Y133942D01*
X198547Y133980D01*
X198440Y133981D01*
X198429Y133986D01*
X198427Y133986D01*
X198427Y133986D01*
X198426Y133985D01*
X198424Y133986D01*
X198424Y133986D01*
X198332Y134024D01*
X180420D01*
X177124Y137320D01*
Y147365D01*
X177124Y157411D01*
X190470Y170756D01*
X193072D01*
Y170729D01*
X199608D01*
Y170756D01*
X208930D01*
X209032Y170798D01*
X209142Y170798D01*
X209220Y170830D01*
X209220Y170831D01*
X209220D01*
X209298Y170908D01*
X209321Y170918D01*
X209331Y170942D01*
X209408Y171019D01*
X209432Y171028D01*
X209442Y171052D01*
X209520Y171130D01*
Y171130D01*
X209520Y171130D01*
X209552Y171208D01*
Y171318D01*
X209594Y171420D01*
Y209616D01*
X209432Y210007D01*
X208977Y210462D01*
X208586Y210624D01*
X208439D01*
Y210741D01*
X201904D01*
Y210624D01*
X199761D01*
Y210721D01*
X193225D01*
Y210721D01*
X192738Y210752D01*
X192738Y210752D01*
X178993Y224504D01*
X177446Y226051D01*
X177446Y236466D01*
X177446Y252413D01*
X177404Y252515D01*
X177404Y252626D01*
X177367Y252715D01*
X177289Y252792D01*
X177247Y252894D01*
X176911Y253231D01*
X176820Y253269D01*
X176820Y253269D01*
X176809Y253273D01*
X176731Y253351D01*
X176640Y253389D01*
X176531Y253389D01*
X176520Y253393D01*
X176519Y253393D01*
X176428Y253431D01*
D02*
G37*
G36*
X66022Y271427D02*
X53974D01*
Y259379D01*
X58708D01*
Y255480D01*
X58787Y255085D01*
X59010Y254750D01*
X60949Y252811D01*
X60888Y252505D01*
X61027Y251806D01*
X61423Y251213D01*
X62016Y250817D01*
X62715Y250678D01*
X63414Y250817D01*
X64006Y251213D01*
X64402Y251806D01*
X64541Y252505D01*
X64402Y253204D01*
X64006Y253796D01*
X63414Y254192D01*
X62715Y254331D01*
X62408Y254270D01*
X60772Y255907D01*
Y259379D01*
X66022D01*
Y271427D01*
D02*
G37*
G36*
X88190Y224896D02*
X87560Y224770D01*
X87412Y224671D01*
X60285D01*
X59760Y224776D01*
X59130Y224651D01*
X58596Y224294D01*
X58240Y223760D01*
X58114Y223130D01*
X58240Y222500D01*
X58596Y221966D01*
X59130Y221609D01*
X59760Y221484D01*
X60285Y221589D01*
X88070D01*
X88070Y221589D01*
X88169Y221608D01*
X88190Y221604D01*
X88820Y221729D01*
X89354Y222086D01*
X89710Y222620D01*
X89836Y223250D01*
X89710Y223880D01*
X89354Y224414D01*
X88820Y224770D01*
X88190Y224896D01*
D02*
G37*
G36*
X194580Y226926D02*
X189620D01*
Y225625D01*
X188065D01*
X187596Y225532D01*
X187199Y225266D01*
X186544Y224611D01*
X186278Y224664D01*
X185579Y224525D01*
X184987Y224130D01*
X184591Y223537D01*
X184452Y222838D01*
X184591Y222139D01*
X184987Y221547D01*
X185579Y221151D01*
X186278Y221012D01*
X186977Y221151D01*
X187570Y221547D01*
X187966Y222139D01*
X188073Y222677D01*
X188572Y223176D01*
X189620D01*
Y222359D01*
X194580D01*
Y226926D01*
D02*
G37*
G36*
X201880Y227026D02*
X196920D01*
Y222459D01*
X201880D01*
Y223518D01*
X205027D01*
X205286Y223259D01*
X205393Y222721D01*
X205788Y222129D01*
X206381Y221733D01*
X207080Y221594D01*
X207779Y221733D01*
X208371Y222129D01*
X208767Y222721D01*
X208906Y223420D01*
X208767Y224119D01*
X208371Y224711D01*
X207779Y225107D01*
X207080Y225246D01*
X206814Y225194D01*
X206399Y225608D01*
X206002Y225874D01*
X205534Y225967D01*
X201880D01*
Y227026D01*
D02*
G37*
G36*
X116220Y221183D02*
X112196D01*
Y216223D01*
X113330D01*
Y213664D01*
X111728D01*
Y213408D01*
X111266Y213217D01*
X111180Y213302D01*
X110895Y213493D01*
X110559Y213560D01*
X104098D01*
Y215456D01*
X100319D01*
Y209905D01*
X104098D01*
Y211802D01*
X110195D01*
X110967Y211030D01*
X111252Y210840D01*
X111588Y210773D01*
X111728D01*
Y209640D01*
X116689D01*
Y213664D01*
X115087D01*
Y216223D01*
X116220D01*
Y221183D01*
D02*
G37*
G36*
X100358Y206598D02*
X96578D01*
Y204854D01*
X91420D01*
Y205672D01*
X87396D01*
Y200711D01*
X91420D01*
Y202791D01*
X96578D01*
Y201047D01*
X100358D01*
Y206598D01*
D02*
G37*
G36*
X49545Y211445D02*
X42615D01*
Y209012D01*
X31090D01*
X30695Y208933D01*
X30360Y208710D01*
X27360Y205710D01*
X27137Y205375D01*
X27058Y204980D01*
Y140350D01*
X27137Y139955D01*
X27248Y139788D01*
Y139448D01*
X27268Y139349D01*
Y135500D01*
X28248D01*
Y130530D01*
X27388D01*
Y125570D01*
X28368D01*
Y99316D01*
X28447Y98921D01*
X28670Y98586D01*
X28879Y98378D01*
X28764Y97800D01*
X28903Y97101D01*
X29298Y96509D01*
X29891Y96113D01*
X29938Y96103D01*
X30063Y96020D01*
X30800Y95873D01*
X34132D01*
X35873Y94132D01*
Y91114D01*
X36020Y90377D01*
X36438Y89752D01*
X37846Y88344D01*
Y85000D01*
X38008Y84608D01*
X38400Y84446D01*
X74600D01*
X74992Y84608D01*
X75692Y85308D01*
X75854Y85700D01*
Y89871D01*
X88076D01*
X88236Y89712D01*
X89056Y89164D01*
X90024Y88971D01*
X96929D01*
X97208Y88608D01*
X98055Y87958D01*
X99041Y87549D01*
X100100Y87410D01*
X101159Y87549D01*
X102145Y87958D01*
X102992Y88608D01*
X103642Y89455D01*
X104051Y90441D01*
X104190Y91500D01*
X104051Y92559D01*
X103642Y93545D01*
X102992Y94392D01*
X102145Y95042D01*
X101159Y95451D01*
X100100Y95590D01*
X99041Y95451D01*
X98055Y95042D01*
X97208Y94392D01*
X96929Y94029D01*
X91071D01*
X90912Y94188D01*
X90092Y94736D01*
X89124Y94929D01*
X74088D01*
X73120Y94736D01*
X72300Y94188D01*
X71166Y93054D01*
X39727D01*
Y94930D01*
X39580Y95667D01*
X39162Y96292D01*
X36292Y99162D01*
X35667Y99580D01*
X34930Y99727D01*
X31622D01*
Y102063D01*
X44460Y114901D01*
X45176Y114605D01*
X46080Y114486D01*
X46984Y114605D01*
X47827Y114954D01*
X48551Y115509D01*
X49106Y116233D01*
X49455Y117076D01*
X49575Y117980D01*
X49455Y118884D01*
X49106Y119727D01*
X48551Y120451D01*
X47827Y121006D01*
X46984Y121355D01*
X46080Y121475D01*
X45176Y121355D01*
X44333Y121006D01*
X43609Y120451D01*
X43054Y119727D01*
X42705Y118884D01*
X42586Y117980D01*
X42705Y117076D01*
X43001Y116360D01*
X30894Y104253D01*
X30432Y104444D01*
Y125570D01*
X31412D01*
Y130530D01*
X30312D01*
Y135500D01*
X31292D01*
Y140460D01*
X31023D01*
X30831Y140922D01*
X32107Y142198D01*
X68050D01*
X68445Y142277D01*
X68779Y142500D01*
X71609Y145330D01*
X71650D01*
X71750Y145350D01*
X74662D01*
Y150310D01*
X74262D01*
Y153255D01*
X74521Y153428D01*
X74917Y154021D01*
X75056Y154720D01*
X74917Y155419D01*
X74521Y156011D01*
X73929Y156407D01*
X73230Y156546D01*
X72531Y156407D01*
X71939Y156011D01*
X71543Y155419D01*
X71404Y154720D01*
X71543Y154021D01*
X71939Y153428D01*
X72198Y153255D01*
Y150310D01*
X70638D01*
Y147215D01*
X70452Y147091D01*
X68672Y145311D01*
X68521Y145309D01*
X68062Y145750D01*
X68062Y145826D01*
Y150310D01*
X64038D01*
Y148859D01*
X59459D01*
X59455Y148884D01*
X59106Y149727D01*
X59091Y149748D01*
X62001Y152659D01*
X62192Y152944D01*
X62259Y153280D01*
X62259Y153280D01*
Y161923D01*
X62672Y162198D01*
X63067Y162791D01*
X63206Y163490D01*
X63067Y164189D01*
X62672Y164781D01*
X62079Y165177D01*
X61380Y165316D01*
X60681Y165177D01*
X60088Y164781D01*
X59693Y164189D01*
X59554Y163490D01*
X59693Y162791D01*
X60088Y162198D01*
X60501Y161923D01*
Y153644D01*
X57848Y150990D01*
X57827Y151006D01*
X56984Y151355D01*
X56080Y151474D01*
X55176Y151355D01*
X54333Y151006D01*
X53609Y150451D01*
X53054Y149727D01*
X52705Y148884D01*
X52586Y147980D01*
X52705Y147076D01*
X53054Y146233D01*
X53609Y145509D01*
X54333Y144954D01*
X54796Y144762D01*
X54697Y144262D01*
X47463D01*
X47363Y144762D01*
X47827Y144954D01*
X48551Y145509D01*
X49106Y146233D01*
X49455Y147076D01*
X49575Y147980D01*
X49455Y148884D01*
X49106Y149727D01*
X48551Y150451D01*
X47827Y151006D01*
X46984Y151355D01*
X46959Y151359D01*
Y154601D01*
X46984Y154605D01*
X47827Y154954D01*
X48551Y155509D01*
X49106Y156233D01*
X49455Y157076D01*
X49575Y157980D01*
X49455Y158884D01*
X49106Y159727D01*
X48551Y160451D01*
X47827Y161006D01*
X46984Y161355D01*
X46080Y161475D01*
X45176Y161355D01*
X44333Y161006D01*
X43609Y160451D01*
X43054Y159727D01*
X42705Y158884D01*
X42586Y157980D01*
X42705Y157076D01*
X43054Y156233D01*
X43609Y155509D01*
X44333Y154954D01*
X45176Y154605D01*
X45201Y154601D01*
Y151359D01*
X45176Y151355D01*
X44333Y151006D01*
X43609Y150451D01*
X43054Y149727D01*
X42705Y148884D01*
X42586Y147980D01*
X42705Y147076D01*
X43054Y146233D01*
X43609Y145509D01*
X44333Y144954D01*
X44796Y144762D01*
X44697Y144262D01*
X31680D01*
X31285Y144183D01*
X30950Y143959D01*
X29584Y142593D01*
X29122Y142784D01*
Y204553D01*
X31517Y206948D01*
X42615D01*
Y204515D01*
X49545D01*
Y211445D01*
D02*
G37*
G36*
X84820Y205672D02*
X80796D01*
Y204070D01*
X66332D01*
X66332Y204070D01*
X65996Y204003D01*
X65711Y203813D01*
X65379Y203487D01*
X64680Y203626D01*
X63981Y203487D01*
X63389Y203092D01*
X62993Y202499D01*
X62854Y201800D01*
X62993Y201101D01*
X63389Y200508D01*
X63981Y200113D01*
X64680Y199974D01*
X65379Y200113D01*
X65971Y200508D01*
X66367Y201101D01*
X66506Y201800D01*
X66487Y201900D01*
X66846Y202313D01*
X80796D01*
Y200711D01*
X84820D01*
Y205672D01*
D02*
G37*
G36*
X122820Y221183D02*
X118796D01*
Y216223D01*
X122820D01*
Y217671D01*
X124410D01*
X134281Y207801D01*
X134615Y207577D01*
X135010Y207498D01*
X150283D01*
X150285Y207497D01*
X150680Y207418D01*
X151923D01*
X155095Y204246D01*
X155034Y203940D01*
X155173Y203241D01*
X155569Y202648D01*
X156161Y202253D01*
X156860Y202114D01*
X157559Y202253D01*
X158151Y202648D01*
X158547Y203241D01*
X158686Y203940D01*
X158547Y204639D01*
X158151Y205231D01*
X157559Y205627D01*
X156860Y205766D01*
X156553Y205705D01*
X153079Y209179D01*
X152745Y209403D01*
X152350Y209482D01*
X150997D01*
X150995Y209483D01*
X150600Y209562D01*
X135437D01*
X125566Y219432D01*
X125232Y219656D01*
X124837Y219735D01*
X122820D01*
Y221183D01*
D02*
G37*
G36*
X201880Y232341D02*
X196920D01*
Y227774D01*
X201880D01*
Y228516D01*
X212402D01*
X215162Y225756D01*
Y223811D01*
X211074D01*
Y210189D01*
X213666D01*
Y203396D01*
X213769Y202610D01*
X214073Y201877D01*
X214556Y201248D01*
X214662Y201142D01*
X214940Y200780D01*
X215581Y200288D01*
X216328Y199978D01*
X217130Y199873D01*
X217932Y199978D01*
X218679Y200288D01*
X219320Y200780D01*
X219812Y201421D01*
X220122Y202168D01*
X220227Y202970D01*
X220122Y203772D01*
X219812Y204519D01*
X219742Y204611D01*
Y210189D01*
X222334D01*
Y223811D01*
X218245D01*
Y226395D01*
X218245Y226395D01*
X218128Y226985D01*
X217794Y227485D01*
X217794Y227485D01*
X214131Y231147D01*
X213631Y231482D01*
X213041Y231599D01*
X213041Y231599D01*
X201880D01*
Y232341D01*
D02*
G37*
G36*
X156700Y198006D02*
X156001Y197867D01*
X155409Y197471D01*
X155235Y197212D01*
X109191D01*
X108796Y197133D01*
X108462Y196909D01*
X104867Y193315D01*
X104826D01*
X104726Y193295D01*
X101814D01*
Y191902D01*
X98838D01*
Y193350D01*
X94815D01*
Y188390D01*
X98838D01*
Y189838D01*
X101814D01*
Y188335D01*
X105838D01*
Y191429D01*
X106024Y191554D01*
X108019Y193549D01*
X108414Y193237D01*
X108414Y192819D01*
Y188335D01*
X109394D01*
Y185675D01*
X108265D01*
Y184227D01*
X74695D01*
X74300Y184148D01*
X73966Y183925D01*
X67957Y177916D01*
X67650Y177976D01*
X66951Y177837D01*
X66359Y177442D01*
X65963Y176849D01*
X65824Y176150D01*
X65963Y175451D01*
X66359Y174858D01*
X66951Y174463D01*
X67650Y174324D01*
X68349Y174463D01*
X68941Y174858D01*
X69337Y175451D01*
X69476Y176150D01*
X69415Y176456D01*
X75122Y182164D01*
X108265D01*
Y180715D01*
X109362D01*
Y178572D01*
X108381D01*
Y173611D01*
X112405D01*
Y178572D01*
X111425D01*
Y180715D01*
X112289D01*
Y185675D01*
X111458D01*
Y188335D01*
X112438D01*
Y193295D01*
X108911D01*
X108472Y193295D01*
X108160Y193690D01*
X109618Y195148D01*
X155235D01*
X155409Y194888D01*
X156001Y194493D01*
X156700Y194354D01*
X157399Y194493D01*
X157992Y194888D01*
X158387Y195481D01*
X158526Y196180D01*
X158387Y196879D01*
X157992Y197471D01*
X157399Y197867D01*
X156700Y198006D01*
D02*
G37*
G36*
X46080Y201474D02*
X45176Y201355D01*
X44333Y201006D01*
X43609Y200451D01*
X43054Y199727D01*
X42705Y198884D01*
X42586Y197980D01*
X42705Y197076D01*
X43054Y196233D01*
X43609Y195509D01*
X44333Y194954D01*
X45176Y194605D01*
X45201Y194601D01*
Y191359D01*
X45176Y191355D01*
X44333Y191006D01*
X43609Y190451D01*
X43054Y189727D01*
X42705Y188884D01*
X42586Y187980D01*
X42705Y187076D01*
X43054Y186233D01*
X43609Y185509D01*
X44333Y184954D01*
X45176Y184605D01*
X46080Y184485D01*
X46984Y184605D01*
X47827Y184954D01*
X48551Y185509D01*
X49106Y186233D01*
X49455Y187076D01*
X49575Y187980D01*
X49455Y188884D01*
X49106Y189727D01*
X48551Y190451D01*
X47827Y191006D01*
X46984Y191355D01*
X46959Y191359D01*
Y194601D01*
X46984Y194605D01*
X47827Y194954D01*
X48551Y195509D01*
X49106Y196233D01*
X49125Y196279D01*
X49719D01*
X53669Y192329D01*
X53669Y192329D01*
X53954Y192138D01*
X54290Y192071D01*
X54290Y192071D01*
X72556D01*
X75103Y189524D01*
X75093Y189509D01*
X74954Y188810D01*
X75093Y188111D01*
X75489Y187519D01*
X76081Y187123D01*
X76780Y186984D01*
X77479Y187123D01*
X78071Y187519D01*
X78467Y188111D01*
X78606Y188810D01*
X78467Y189509D01*
X78071Y190102D01*
X77479Y190497D01*
X76780Y190636D01*
X76527Y190586D01*
X73541Y193571D01*
X73256Y193762D01*
X72920Y193829D01*
X54654D01*
X50704Y197779D01*
X50419Y197969D01*
X50083Y198036D01*
X49567D01*
X49455Y198884D01*
X49106Y199727D01*
X48551Y200451D01*
X47827Y201006D01*
X46984Y201355D01*
X46080Y201474D01*
D02*
G37*
G36*
X156820Y188426D02*
X156121Y188287D01*
X155528Y187891D01*
X155462Y187792D01*
X124462D01*
X124067Y187713D01*
X123732Y187489D01*
X123147Y186904D01*
X122923Y186569D01*
X122845Y186174D01*
Y185710D01*
X121864D01*
Y184262D01*
X118889D01*
Y185675D01*
X114865D01*
Y180715D01*
X118889D01*
Y182198D01*
X121864D01*
Y180750D01*
X122748D01*
Y175807D01*
X118906Y171966D01*
X118600Y172026D01*
X117901Y171887D01*
X117308Y171492D01*
X116913Y170899D01*
X116774Y170200D01*
X116913Y169501D01*
X117308Y168909D01*
X117901Y168513D01*
X118600Y168374D01*
X119299Y168513D01*
X119892Y168909D01*
X120287Y169501D01*
X120426Y170200D01*
X120366Y170507D01*
X124510Y174651D01*
X124733Y174985D01*
X124812Y175380D01*
Y180750D01*
X125888D01*
Y185710D01*
X126381Y185728D01*
X155248D01*
X155528Y185309D01*
X156121Y184913D01*
X156820Y184774D01*
X157519Y184913D01*
X158112Y185309D01*
X158507Y185901D01*
X158646Y186600D01*
X158507Y187299D01*
X158112Y187891D01*
X157519Y188287D01*
X156820Y188426D01*
D02*
G37*
G36*
X105805Y178572D02*
X101782D01*
Y177123D01*
X98795D01*
Y178515D01*
X94771D01*
Y173555D01*
X98795D01*
Y175060D01*
X101782D01*
Y173611D01*
X102762D01*
Y172415D01*
X102840Y172020D01*
X103064Y171685D01*
X108216Y166533D01*
X108214Y166520D01*
X108353Y165821D01*
X108748Y165228D01*
X108913Y165119D01*
X108761Y164619D01*
X101410D01*
X101074Y164552D01*
X100789Y164361D01*
X100789Y164361D01*
X99409Y162981D01*
X99218Y162696D01*
X99151Y162360D01*
Y132944D01*
X95066Y128859D01*
X59459D01*
X59455Y128884D01*
X59106Y129727D01*
X58551Y130451D01*
X57827Y131006D01*
X56984Y131355D01*
X56080Y131474D01*
X55176Y131355D01*
X54333Y131006D01*
X53609Y130451D01*
X53054Y129727D01*
X52705Y128884D01*
X52669Y128612D01*
X52169Y128644D01*
Y134166D01*
X53518Y135515D01*
X53609Y135509D01*
X54333Y134954D01*
X55176Y134605D01*
X56080Y134485D01*
X56984Y134605D01*
X57827Y134954D01*
X58551Y135509D01*
X59106Y136233D01*
X59455Y137076D01*
X59575Y137980D01*
X59455Y138884D01*
X59106Y139727D01*
X58551Y140451D01*
X57827Y141006D01*
X56984Y141355D01*
X56080Y141474D01*
X55176Y141355D01*
X54333Y141006D01*
X53609Y140451D01*
X53054Y139727D01*
X52705Y138884D01*
X52586Y137980D01*
X52692Y137174D01*
X50669Y135151D01*
X50478Y134866D01*
X50411Y134530D01*
Y124920D01*
X50478Y124584D01*
X50669Y124299D01*
X52149Y122819D01*
X52149Y122819D01*
X52434Y122628D01*
X52770Y122561D01*
X52770Y122561D01*
X94710D01*
X95046Y122628D01*
X95331Y122819D01*
X103291Y130779D01*
X103482Y131064D01*
X103549Y131400D01*
Y160471D01*
X149020D01*
X149356Y160538D01*
X149641Y160729D01*
X155893Y166980D01*
X156380Y166884D01*
X157079Y167023D01*
X157671Y167419D01*
X158067Y168011D01*
X158206Y168710D01*
X158067Y169409D01*
X157671Y170001D01*
X157079Y170397D01*
X156380Y170536D01*
X155681Y170397D01*
X155088Y170001D01*
X154693Y169409D01*
X154554Y168710D01*
X154650Y168223D01*
X148656Y162229D01*
X103080D01*
X102744Y162162D01*
X102459Y161971D01*
X102049Y161561D01*
X101858Y161276D01*
X101791Y160940D01*
Y131764D01*
X94346Y124319D01*
X57601D01*
X57501Y124819D01*
X57827Y124954D01*
X58551Y125509D01*
X59106Y126233D01*
X59455Y127076D01*
X59459Y127101D01*
X95430D01*
X95766Y127168D01*
X96051Y127359D01*
X100651Y131959D01*
X100842Y132244D01*
X100909Y132580D01*
Y161996D01*
X101774Y162861D01*
X145070D01*
X145406Y162928D01*
X145691Y163119D01*
X152273Y169700D01*
X152760Y169604D01*
X153459Y169743D01*
X154051Y170139D01*
X154447Y170731D01*
X154586Y171430D01*
X154447Y172129D01*
X154051Y172722D01*
X153459Y173117D01*
X152760Y173256D01*
X152061Y173117D01*
X151469Y172722D01*
X151073Y172129D01*
X150934Y171430D01*
X151030Y170943D01*
X144706Y164619D01*
X111319D01*
X111167Y165119D01*
X111331Y165228D01*
X111727Y165821D01*
X111866Y166520D01*
X111727Y167219D01*
X111331Y167812D01*
X110739Y168207D01*
X110040Y168346D01*
X109440Y168227D01*
X104825Y172842D01*
Y173611D01*
X105805D01*
Y178572D01*
D02*
G37*
G36*
X56080Y191474D02*
X55176Y191355D01*
X54333Y191006D01*
X53609Y190451D01*
X53054Y189727D01*
X52705Y188884D01*
X52586Y187980D01*
X52705Y187076D01*
X53054Y186233D01*
X53609Y185509D01*
X54333Y184954D01*
X55176Y184605D01*
X55201Y184601D01*
Y181359D01*
X55176Y181355D01*
X54333Y181006D01*
X53609Y180451D01*
X53054Y179727D01*
X52705Y178884D01*
X52586Y177980D01*
X52705Y177076D01*
X53054Y176233D01*
X53609Y175509D01*
X54333Y174954D01*
X55176Y174605D01*
X56080Y174486D01*
X56984Y174605D01*
X57827Y174954D01*
X58551Y175509D01*
X59106Y176233D01*
X59455Y177076D01*
X59575Y177980D01*
X59455Y178884D01*
X59106Y179727D01*
X58551Y180451D01*
X57827Y181006D01*
X56984Y181355D01*
X56959Y181359D01*
Y184601D01*
X56984Y184605D01*
X57827Y184954D01*
X58551Y185509D01*
X59106Y186233D01*
X59455Y187076D01*
X59575Y187980D01*
X59455Y188884D01*
X59106Y189727D01*
X58551Y190451D01*
X57827Y191006D01*
X56984Y191355D01*
X56080Y191474D01*
D02*
G37*
G36*
X46080Y181474D02*
X45176Y181355D01*
X44333Y181006D01*
X43609Y180451D01*
X43054Y179727D01*
X42705Y178884D01*
X42586Y177980D01*
X42705Y177076D01*
X43054Y176233D01*
X43609Y175509D01*
X44333Y174954D01*
X45048Y174657D01*
Y171303D01*
X44333Y171006D01*
X43609Y170451D01*
X43054Y169727D01*
X42705Y168884D01*
X42586Y167980D01*
X42705Y167076D01*
X43054Y166233D01*
X43609Y165509D01*
X44333Y164954D01*
X45176Y164605D01*
X46080Y164486D01*
X46984Y164605D01*
X47827Y164954D01*
X48551Y165509D01*
X49106Y166233D01*
X49455Y167076D01*
X49575Y167980D01*
X49455Y168884D01*
X49106Y169727D01*
X48551Y170451D01*
X47827Y171006D01*
X47112Y171303D01*
Y174657D01*
X47700Y174901D01*
X50936Y171665D01*
X51270Y171442D01*
X51665Y171363D01*
X79477D01*
X79651Y171103D01*
X80243Y170707D01*
X80942Y170569D01*
X81641Y170707D01*
X82234Y171103D01*
X82630Y171696D01*
X82769Y172395D01*
X82630Y173094D01*
X82234Y173686D01*
X81641Y174082D01*
X80942Y174221D01*
X80243Y174082D01*
X79651Y173686D01*
X79477Y173426D01*
X52092D01*
X49159Y176360D01*
X49455Y177076D01*
X49575Y177980D01*
X49455Y178884D01*
X49106Y179727D01*
X48551Y180451D01*
X47827Y181006D01*
X46984Y181355D01*
X46080Y181474D01*
D02*
G37*
G36*
X206490Y161136D02*
X205791Y160997D01*
X205199Y160601D01*
X204803Y160009D01*
X204695Y159466D01*
X203632Y158403D01*
X202580D01*
Y158684D01*
X197620D01*
Y154116D01*
X202580D01*
Y155955D01*
X204139D01*
X204607Y156048D01*
X205005Y156313D01*
X206227Y157536D01*
X206490Y157484D01*
X207189Y157623D01*
X207782Y158019D01*
X208177Y158611D01*
X208316Y159310D01*
X208177Y160009D01*
X207782Y160601D01*
X207189Y160997D01*
X206490Y161136D01*
D02*
G37*
G36*
X187251Y160444D02*
X186552Y160306D01*
X185959Y159910D01*
X185563Y159317D01*
X185424Y158618D01*
X185563Y157919D01*
X185959Y157327D01*
X186552Y156931D01*
X187251Y156792D01*
X187517Y156845D01*
X187787Y156574D01*
X188184Y156309D01*
X188652Y156216D01*
X190120D01*
Y154074D01*
X195080D01*
Y158641D01*
X191636D01*
X191517Y158665D01*
X189160D01*
X189045Y158779D01*
X188938Y159317D01*
X188542Y159910D01*
X187950Y160306D01*
X187251Y160444D01*
D02*
G37*
G36*
X218030Y179137D02*
X217228Y179032D01*
X216481Y178722D01*
X215840Y178230D01*
X215562Y177868D01*
X214794Y177101D01*
X214312Y176471D01*
X214008Y175739D01*
X213905Y174952D01*
Y166811D01*
X211313D01*
Y155369D01*
X208570Y152627D01*
X202580D01*
Y153368D01*
X197620D01*
Y148802D01*
X202580D01*
Y149544D01*
X209208D01*
X209209Y149544D01*
X209798Y149661D01*
X210298Y149995D01*
X213492Y153189D01*
X222572D01*
Y166811D01*
X219980D01*
Y173666D01*
X220220Y173850D01*
X220712Y174491D01*
X221022Y175238D01*
X221127Y176040D01*
X221022Y176842D01*
X220712Y177589D01*
X220220Y178230D01*
X219579Y178722D01*
X218832Y179032D01*
X218030Y179137D01*
D02*
G37*
G36*
X46080Y141474D02*
X45176Y141355D01*
X44333Y141006D01*
X43609Y140451D01*
X43054Y139727D01*
X42757Y139012D01*
X37892D01*
Y140460D01*
X33868D01*
Y135500D01*
X37892D01*
Y136948D01*
X42757D01*
X43054Y136233D01*
X43609Y135509D01*
X44333Y134954D01*
X45176Y134605D01*
X46080Y134485D01*
X46984Y134605D01*
X47827Y134954D01*
X48551Y135509D01*
X49106Y136233D01*
X49455Y137076D01*
X49575Y137980D01*
X49455Y138884D01*
X49106Y139727D01*
X48551Y140451D01*
X47827Y141006D01*
X46984Y141355D01*
X46080Y141474D01*
D02*
G37*
G36*
Y131474D02*
X45176Y131355D01*
X44333Y131006D01*
X43609Y130451D01*
X43054Y129727D01*
X42757Y129012D01*
X38012D01*
Y130530D01*
X33988D01*
Y125570D01*
X38012D01*
Y126948D01*
X42757D01*
X43054Y126233D01*
X43609Y125509D01*
X44333Y124954D01*
X45176Y124605D01*
X46080Y124486D01*
X46984Y124605D01*
X47827Y124954D01*
X48551Y125509D01*
X49106Y126233D01*
X49455Y127076D01*
X49575Y127980D01*
X49455Y128884D01*
X49106Y129727D01*
X48551Y130451D01*
X47827Y131006D01*
X46984Y131355D01*
X46080Y131474D01*
D02*
G37*
G36*
X56080Y121475D02*
X55176Y121355D01*
X54333Y121006D01*
X53609Y120451D01*
X53054Y119727D01*
X52705Y118884D01*
X52586Y117980D01*
X52705Y117076D01*
X53054Y116233D01*
X53609Y115509D01*
X54333Y114954D01*
X55176Y114605D01*
X56080Y114486D01*
X56984Y114605D01*
X57827Y114954D01*
X58551Y115509D01*
X59106Y116233D01*
X59455Y117076D01*
X59575Y117980D01*
X59455Y118884D01*
X59106Y119727D01*
X58551Y120451D01*
X57827Y121006D01*
X56984Y121355D01*
X56080Y121475D01*
D02*
G37*
G36*
X195080Y153326D02*
X190120D01*
Y148759D01*
X191059D01*
Y143200D01*
X191059Y143200D01*
X191176Y142610D01*
X191510Y142110D01*
X203029Y130591D01*
X203029Y130591D01*
X203529Y130257D01*
X204119Y130140D01*
X214489D01*
X215312Y129317D01*
Y112374D01*
X211697D01*
X211550Y112374D01*
X211223Y112311D01*
Y112269D01*
X211187Y112233D01*
X211086Y112191D01*
X211085Y112191D01*
X211076Y112169D01*
X211043Y112089D01*
X210965Y112011D01*
X210928Y111922D01*
Y111812D01*
X210886Y111710D01*
Y86160D01*
X210928Y86058D01*
X210928Y85948D01*
X210960Y85870D01*
X210961Y85870D01*
Y85870D01*
X211038Y85792D01*
X211048Y85769D01*
X211072Y85759D01*
X211149Y85682D01*
X211158Y85658D01*
X211182Y85648D01*
X211260Y85571D01*
X211260D01*
X211260Y85571D01*
X211338Y85538D01*
X211448D01*
X211550Y85496D01*
X222629D01*
X222731Y85538D01*
X222842Y85538D01*
X222920Y85571D01*
X222997Y85648D01*
X223021Y85658D01*
X223031Y85682D01*
X223069Y85720D01*
X223107Y85758D01*
X223131Y85768D01*
X223141Y85792D01*
X223219Y85870D01*
X223251Y85948D01*
X223252Y86058D01*
X223294Y86160D01*
X223314Y111356D01*
X223272Y111458D01*
X223272Y111568D01*
X223230Y111670D01*
X223152Y111748D01*
X223110Y111849D01*
X222791Y112169D01*
X222689Y112211D01*
X222611Y112289D01*
X222509Y112332D01*
X222398Y112332D01*
X222297Y112374D01*
X218395D01*
Y129955D01*
X218277Y130545D01*
X217943Y131045D01*
X217943Y131045D01*
X216217Y132771D01*
X215717Y133105D01*
X215127Y133222D01*
X215127Y133222D01*
X204757D01*
X194141Y143839D01*
Y148759D01*
X195080D01*
Y153326D01*
D02*
G37*
G36*
X297842Y181821D02*
X296899Y181697D01*
X296020Y181333D01*
X295538Y180963D01*
X266558D01*
X265837Y180868D01*
X265165Y180590D01*
X264588Y180147D01*
X259690Y175250D01*
X259248Y174673D01*
X258969Y174001D01*
X258922Y173641D01*
X258874Y173280D01*
Y166811D01*
X255013D01*
Y153189D01*
X266273D01*
Y166811D01*
X264446D01*
Y172126D01*
X267711Y175392D01*
X295538D01*
X296020Y175022D01*
X296899Y174658D01*
X297842Y174534D01*
X298784Y174658D01*
X299663Y175022D01*
X300145Y175392D01*
X327934D01*
X332750Y170576D01*
Y123275D01*
X332797Y122914D01*
X332845Y122554D01*
X333123Y121882D01*
X333566Y121305D01*
X341200Y113670D01*
X341777Y113228D01*
X342449Y112949D01*
X343170Y112854D01*
X350352D01*
X351110Y111866D01*
X352142Y111074D01*
X353344Y110576D01*
X354634Y110406D01*
X355924Y110576D01*
X357126Y111074D01*
X358158Y111866D01*
X358950Y112898D01*
X359448Y114100D01*
X359618Y115390D01*
X359448Y116680D01*
X358950Y117882D01*
X358158Y118914D01*
X357126Y119706D01*
X355924Y120204D01*
X354634Y120374D01*
X353344Y120204D01*
X352142Y119706D01*
X351110Y118914D01*
X350735Y118426D01*
X344324D01*
X338321Y124428D01*
Y171730D01*
X338274Y172090D01*
X338226Y172451D01*
X337948Y173123D01*
X337505Y173700D01*
X331058Y180147D01*
X330481Y180590D01*
X329809Y180868D01*
X329448Y180916D01*
X329088Y180963D01*
X300145D01*
X299663Y181333D01*
X298784Y181697D01*
X297842Y181821D01*
D02*
G37*
G36*
X266184Y112311D02*
X254924D01*
Y98689D01*
X257516D01*
Y92500D01*
Y41913D01*
X257620Y41126D01*
X257923Y40394D01*
X258406Y39765D01*
X263264Y34907D01*
X263893Y34424D01*
X264626Y34121D01*
X265412Y34017D01*
X295561D01*
X295714Y33900D01*
X296592Y33536D01*
X297535Y33412D01*
X298478Y33536D01*
X299357Y33900D01*
X299510Y34017D01*
X323555D01*
X324341Y34121D01*
X325074Y34424D01*
X325703Y34907D01*
X336748Y45952D01*
X337231Y46581D01*
X337534Y47314D01*
X337638Y48100D01*
Y93122D01*
X341658Y97142D01*
X350898D01*
X351110Y96866D01*
X352142Y96074D01*
X353344Y95576D01*
X354634Y95406D01*
X355924Y95576D01*
X357126Y96074D01*
X358158Y96866D01*
X358950Y97898D01*
X359448Y99100D01*
X359618Y100390D01*
X359448Y101680D01*
X358950Y102882D01*
X358158Y103914D01*
X357126Y104706D01*
X355924Y105204D01*
X354634Y105374D01*
X353344Y105204D01*
X352142Y104706D01*
X351110Y103914D01*
X350576Y103218D01*
X340400D01*
X339614Y103114D01*
X338881Y102811D01*
X338252Y102328D01*
X332452Y96528D01*
X331969Y95899D01*
X331666Y95166D01*
X331562Y94380D01*
Y49358D01*
X322297Y40093D01*
X299510D01*
X299357Y40210D01*
X298478Y40574D01*
X297535Y40699D01*
X296592Y40574D01*
X295714Y40210D01*
X295561Y40093D01*
X266670D01*
X263592Y43171D01*
Y92500D01*
Y98689D01*
X266184D01*
Y112311D01*
D02*
G37*
G36*
X72626Y83069D02*
X62170Y83058D01*
X62068Y83016D01*
X61958Y83016D01*
X61880Y82983D01*
X61880Y82983D01*
X61880Y82983D01*
X61802Y82905D01*
X61778Y82895D01*
X61776Y82891D01*
X61699Y82859D01*
X61699Y82859D01*
X61699Y82859D01*
X61658Y82761D01*
X61580Y82683D01*
X61580Y82683D01*
X61580Y82683D01*
X61579Y82679D01*
X61578Y82679D01*
X61578Y82679D01*
X61548Y82606D01*
Y82496D01*
X61536Y82467D01*
Y82467D01*
X61536Y82467D01*
X61536Y82467D01*
X61506Y82394D01*
X61506Y75590D01*
X61548Y75488D01*
Y75378D01*
X61626Y75190D01*
X61704Y75112D01*
X61746Y75010D01*
X66906Y69850D01*
X66906Y69850D01*
X66956Y69801D01*
Y69020D01*
X66998Y68918D01*
X66998Y68808D01*
X67030Y68730D01*
X67031Y68730D01*
Y68730D01*
X67108Y68652D01*
X67118Y68629D01*
X67142Y68619D01*
X67219Y68542D01*
X67229Y68518D01*
X67252Y68508D01*
X67330Y68431D01*
X67330D01*
X67330Y68431D01*
X67408Y68398D01*
X67518D01*
X67620Y68356D01*
X73292D01*
X73483Y67894D01*
X71269Y65680D01*
X68488D01*
Y60720D01*
X69121D01*
Y59217D01*
X68708Y58942D01*
X68313Y58349D01*
X68174Y57650D01*
X68313Y56951D01*
X68708Y56358D01*
X69301Y55963D01*
X70000Y55824D01*
X70699Y55963D01*
X70739Y55989D01*
X71058Y55601D01*
X70278Y54822D01*
X70088Y54536D01*
X70021Y54200D01*
Y53480D01*
X68888D01*
Y48520D01*
X72912D01*
Y53480D01*
X72128D01*
X71924Y53980D01*
X76305Y58362D01*
X76802Y58247D01*
X76844Y58215D01*
X76848Y58197D01*
X77038Y57912D01*
X78538Y56412D01*
X78331Y55912D01*
X77116D01*
Y51888D01*
X82077D01*
Y53021D01*
X84220D01*
Y51888D01*
X89180D01*
Y55912D01*
X84220D01*
Y54779D01*
X82077D01*
Y55912D01*
X80476D01*
Y56597D01*
X80409Y56933D01*
X80218Y57218D01*
X78539Y58898D01*
Y62083D01*
X79168Y62711D01*
X82491D01*
Y64680D01*
Y68617D01*
Y72810D01*
X77924D01*
Y72474D01*
X76526D01*
X75651Y73349D01*
X75523Y73435D01*
Y74887D01*
X72334D01*
Y70964D01*
X71420D01*
X71184Y71200D01*
Y75331D01*
X73404Y77550D01*
X73446Y77652D01*
X73524Y77730D01*
X73602Y77918D01*
Y78028D01*
X73644Y78130D01*
X73644Y82051D01*
X73605Y82146D01*
X73605Y82148D01*
X73602Y82157D01*
X73602Y82263D01*
X73563Y82356D01*
X73485Y82434D01*
X73482Y82443D01*
X73481Y82443D01*
X73440Y82539D01*
X73101Y82874D01*
X73000Y82914D01*
X72923Y82991D01*
X72838Y83026D01*
X72728Y83026D01*
X72626Y83069D01*
D02*
G37*
G36*
X124612Y69280D02*
X120588D01*
Y64320D01*
X123369D01*
X124153Y63535D01*
X124328Y63051D01*
X123933Y62459D01*
X123794Y61760D01*
X123933Y61061D01*
X124328Y60469D01*
X124921Y60073D01*
X125620Y59934D01*
X126319Y60073D01*
X126911Y60469D01*
X127307Y61061D01*
X127446Y61760D01*
X127307Y62459D01*
X126911Y63051D01*
X126319Y63447D01*
X126211Y63469D01*
Y63599D01*
X126144Y63936D01*
X125954Y64221D01*
X124612Y65563D01*
Y69280D01*
D02*
G37*
G36*
X106877Y46312D02*
X101916D01*
Y45079D01*
X99480D01*
Y46212D01*
X94520D01*
Y42188D01*
X99480D01*
Y43321D01*
X101916D01*
Y42288D01*
X103881D01*
Y38887D01*
X103469Y38612D01*
X103073Y38019D01*
X102934Y37320D01*
X103073Y36621D01*
X103469Y36029D01*
X104061Y35633D01*
X104760Y35494D01*
X105459Y35633D01*
X106052Y36029D01*
X106447Y36621D01*
X106586Y37320D01*
X106447Y38019D01*
X106052Y38612D01*
X105639Y38887D01*
Y42288D01*
X106877D01*
Y46312D01*
D02*
G37*
G36*
X89180Y49312D02*
X84220D01*
Y45288D01*
X85821D01*
Y40726D01*
X85419Y40375D01*
X85410Y40376D01*
X84711Y40237D01*
X84118Y39841D01*
X83723Y39249D01*
X83584Y38550D01*
X83723Y37851D01*
X84118Y37258D01*
X84711Y36863D01*
X85410Y36724D01*
X86109Y36863D01*
X86702Y37258D01*
X87097Y37851D01*
X87236Y38550D01*
X87097Y39249D01*
X87321Y39626D01*
X87512Y39911D01*
X87579Y40247D01*
X87579Y40247D01*
Y45288D01*
X89180D01*
Y49312D01*
D02*
G37*
G36*
X24420Y117949D02*
X23452Y117756D01*
X22632Y117208D01*
X22084Y116388D01*
X21891Y115420D01*
Y45310D01*
X22084Y44342D01*
X22632Y43522D01*
X35542Y30612D01*
X36362Y30064D01*
X37330Y29871D01*
X156350D01*
X157318Y30064D01*
X158138Y30612D01*
X166268Y38742D01*
X166816Y39562D01*
X167009Y40530D01*
Y75220D01*
X167334Y75644D01*
X167664Y76439D01*
X167776Y77292D01*
Y80048D01*
X167664Y80901D01*
X167334Y81696D01*
X166811Y82379D01*
X166128Y82902D01*
X165333Y83232D01*
X164480Y83344D01*
X163627Y83232D01*
X162832Y82902D01*
X162149Y82379D01*
X161626Y81696D01*
X161296Y80901D01*
X161184Y80048D01*
Y77292D01*
X161296Y76439D01*
X161626Y75644D01*
X161951Y75220D01*
Y41578D01*
X155303Y34929D01*
X38377D01*
X26949Y46358D01*
Y115420D01*
X26756Y116388D01*
X26208Y117208D01*
X25388Y117756D01*
X24420Y117949D01*
D02*
G37*
G36*
X374302Y24570D02*
X372581Y24400D01*
X370926Y23899D01*
X369401Y23083D01*
X368064Y21986D01*
X366967Y20649D01*
X366151Y19124D01*
X365650Y17469D01*
X365480Y15748D01*
X365650Y14027D01*
X366151Y12372D01*
X366967Y10847D01*
X368064Y9510D01*
X369401Y8413D01*
X370926Y7598D01*
X372581Y7096D01*
X374302Y6926D01*
X376023Y7096D01*
X377678Y7598D01*
X379203Y8413D01*
X380540Y9510D01*
X381637Y10847D01*
X382452Y12372D01*
X382955Y14027D01*
X383124Y15748D01*
X382955Y17469D01*
X382452Y19124D01*
X381637Y20649D01*
X380540Y21986D01*
X379203Y23083D01*
X377678Y23899D01*
X376023Y24400D01*
X374302Y24570D01*
D02*
G37*
G36*
X15748D02*
X14027Y24400D01*
X12372Y23899D01*
X10847Y23083D01*
X9510Y21986D01*
X8413Y20649D01*
X7598Y19124D01*
X7096Y17469D01*
X6926Y15748D01*
X7096Y14027D01*
X7598Y12372D01*
X8413Y10847D01*
X9510Y9510D01*
X10847Y8413D01*
X12372Y7598D01*
X14027Y7096D01*
X15748Y6926D01*
X17469Y7096D01*
X19124Y7598D01*
X20649Y8413D01*
X21986Y9510D01*
X23083Y10847D01*
X23899Y12372D01*
X24400Y14027D01*
X24570Y15748D01*
X24400Y17469D01*
X23899Y19124D01*
X23083Y20649D01*
X21986Y21986D01*
X20649Y23083D01*
X19124Y23899D01*
X17469Y24400D01*
X15748Y24570D01*
D02*
G37*
%LPD*%
G36*
X223510Y291230D02*
Y265780D01*
X223486Y265770D01*
X223410Y265694D01*
X223400Y265670D01*
X218484D01*
Y272000D01*
Y282540D01*
X218571Y282980D01*
X218454Y283570D01*
X218120Y284070D01*
X217620Y284404D01*
X217030Y284521D01*
X216440Y284404D01*
X215940Y284070D01*
X215852Y283982D01*
X215518Y283482D01*
X215401Y282892D01*
X215401Y282892D01*
Y272000D01*
Y265670D01*
X211460D01*
X211389Y265699D01*
X211250Y266154D01*
Y291520D01*
X211274Y291530D01*
X211350Y291606D01*
X211360Y291630D01*
X223110D01*
X223510Y291230D01*
D02*
G37*
G36*
X176519Y252839D02*
X176855Y252502D01*
X176892Y252413D01*
X176892Y236466D01*
X176892Y225822D01*
X178601Y224112D01*
X192346Y210361D01*
X192637Y210070D01*
X200838Y210070D01*
X201904D01*
X208586Y210070D01*
X209040Y209616D01*
Y171420D01*
X209008Y171342D01*
X208930Y171310D01*
X190240Y171310D01*
X176570Y157640D01*
X176570Y147365D01*
Y137090D01*
X180190Y133470D01*
X198332D01*
X198422Y133432D01*
X198424Y133432D01*
X198425Y133430D01*
X198516Y133393D01*
X200445Y131437D01*
X200482Y131344D01*
X200483Y131343D01*
Y131341D01*
X200522Y131248D01*
X200520Y114480D01*
X200479Y114380D01*
Y114380D01*
X200479Y114380D01*
X200442Y114292D01*
X198638Y112488D01*
X198450Y112410D01*
X190410D01*
Y111856D01*
Y91970D01*
X190572Y91808D01*
X190572Y91808D01*
X217732Y64648D01*
X217810Y64460D01*
Y29700D01*
X217732Y29512D01*
X214588Y26368D01*
X214400Y26290D01*
X207540D01*
X207352Y26368D01*
X205480Y28240D01*
X203608Y30112D01*
X203530Y30300D01*
Y60300D01*
X203530Y60300D01*
Y60530D01*
X203321Y60739D01*
X166813Y97247D01*
X152553D01*
X152500Y97300D01*
X152285Y97085D01*
X152146Y96947D01*
X140742Y85542D01*
X129278Y74078D01*
X129090Y74000D01*
X125880D01*
X125728Y73848D01*
X125626Y73951D01*
X104251D01*
X99500Y69200D01*
X99493Y69208D01*
X94578D01*
Y72377D01*
X100352Y78151D01*
X113705D01*
X113706Y78150D01*
X114181Y78200D01*
X124980D01*
X125142Y78362D01*
X125142Y78362D01*
X167232Y120452D01*
X167232Y120452D01*
X167232Y120452D01*
X167394Y120614D01*
Y173124D01*
X167472Y173312D01*
X169222Y175062D01*
X169410Y175140D01*
X186950D01*
Y204700D01*
X186740Y204780D01*
X169520Y204830D01*
X169426Y204869D01*
X169425D01*
X169425Y204870D01*
X169332Y204908D01*
X167518Y206722D01*
X167486Y206800D01*
X167518Y206878D01*
X167570Y206930D01*
Y252760D01*
X167602Y252838D01*
X167680Y252870D01*
X168120D01*
X176428Y252877D01*
X176519Y252839D01*
D02*
G37*
%LPC*%
G36*
X173070Y136577D02*
X172256Y136416D01*
X171566Y135954D01*
X171105Y135264D01*
X170942Y134450D01*
X171105Y133636D01*
X171566Y132946D01*
X171830Y132681D01*
X172520Y132220D01*
X173335Y132058D01*
X174149Y132220D01*
X174839Y132681D01*
X175300Y133371D01*
X175462Y134186D01*
X175300Y135000D01*
X174839Y135690D01*
X174574Y135954D01*
X173884Y136416D01*
X173070Y136577D01*
D02*
G37*
G36*
X194105Y121083D02*
X193319Y120980D01*
X192586Y120677D01*
X191957Y120194D01*
X191474Y119565D01*
X191171Y118832D01*
X191067Y118046D01*
X191171Y117260D01*
X191474Y116527D01*
X191957Y115898D01*
X192002Y115853D01*
X192631Y115370D01*
X193364Y115066D01*
X194150Y114963D01*
X194936Y115066D01*
X195669Y115370D01*
X196298Y115853D01*
X196781Y116482D01*
X197084Y117215D01*
X197188Y118001D01*
X197084Y118787D01*
X196781Y119520D01*
X196298Y120149D01*
X196253Y120194D01*
X195624Y120677D01*
X194891Y120980D01*
X194105Y121083D01*
D02*
G37*
%LPD*%
G36*
X75300Y85700D02*
X74600Y85000D01*
X38400D01*
Y92459D01*
X38500Y92500D01*
X75300D01*
Y85700D01*
D02*
G37*
G36*
X222399Y111778D02*
X222718Y111458D01*
X222760Y111356D01*
X222740Y86160D01*
X222707Y86082D01*
X222629Y86050D01*
X211550D01*
X211472Y86082D01*
X211440Y86160D01*
Y111710D01*
X211477Y111799D01*
X211500D01*
X211550Y111820D01*
X215312D01*
Y105500D01*
Y93299D01*
X215219Y92830D01*
X215336Y92240D01*
X215670Y91740D01*
X216170Y91406D01*
X216760Y91289D01*
X217350Y91406D01*
X217850Y91740D01*
X217943Y91833D01*
X217943Y91833D01*
X218277Y92334D01*
X218395Y92923D01*
Y105500D01*
Y111820D01*
X222297D01*
X222399Y111778D01*
D02*
G37*
G36*
X72712Y82479D02*
X73051Y82144D01*
X73090Y82051D01*
X73090Y78130D01*
X73012Y77942D01*
X70630Y75560D01*
Y70970D01*
X71190Y70410D01*
X77970D01*
X78436Y70329D01*
Y70229D01*
X80208D01*
Y69229D01*
X78436D01*
Y69129D01*
X78027Y68910D01*
X67620D01*
X67542Y68942D01*
X67510Y69020D01*
Y69801D01*
X67510Y69801D01*
X67510Y70030D01*
X67348Y70192D01*
X67348Y70192D01*
X67298Y70242D01*
X62138Y75402D01*
X62060Y75590D01*
X62060Y82394D01*
X62090Y82467D01*
Y82467D01*
X62090Y82467D01*
X62092Y82472D01*
X62170Y82504D01*
X72626Y82515D01*
X72712Y82479D01*
D02*
G37*
%LPC*%
G36*
X71921Y81572D02*
X68091D01*
Y80300D01*
X71921D01*
Y81572D01*
D02*
G37*
G36*
X67091D02*
X63261D01*
Y80300D01*
X67091D01*
Y81572D01*
D02*
G37*
G36*
X71921Y79300D02*
X68091D01*
Y78029D01*
X71921D01*
Y79300D01*
D02*
G37*
G36*
X67091D02*
X63261D01*
Y78029D01*
X67091D01*
Y79300D01*
D02*
G37*
G36*
X69697Y74375D02*
X69114D01*
Y73300D01*
X69697D01*
Y74375D01*
D02*
G37*
G36*
X68114D02*
X67531D01*
Y73300D01*
X68114D01*
Y74375D01*
D02*
G37*
G36*
X69697Y72300D02*
X69114D01*
Y71225D01*
X69697D01*
Y72300D01*
D02*
G37*
G36*
X68114D02*
X67531D01*
Y71225D01*
X68114D01*
Y72300D01*
D02*
G37*
%LPD*%
D12*
X73929Y72800D02*
X75102D01*
X76204Y71698D02*
X80208D01*
X75102Y72800D02*
X76204Y71698D01*
D13*
X30720Y286320D02*
X45530Y271510D01*
X30720Y286320D02*
Y292980D01*
X74695Y183195D02*
X110277D01*
X67650Y176150D02*
X74695Y183195D01*
X59740Y255480D02*
Y264900D01*
Y255480D02*
X62715Y252505D01*
X30470Y293356D02*
Y294537D01*
X30731Y293095D02*
Y293630D01*
X46080Y168150D02*
X46220Y168010D01*
X46080Y168150D02*
Y177980D01*
X28629Y139100D02*
X29340D01*
X28280Y139448D02*
X28629Y139100D01*
X28280Y139448D02*
Y140160D01*
X28090Y140350D02*
X28280Y140160D01*
X28090Y140350D02*
Y204980D01*
X31090Y207980D01*
X46080D01*
X72590Y148850D02*
X72781D01*
X29330Y140880D02*
X31680Y143230D01*
X29330Y139720D02*
Y140880D01*
X72650Y147362D02*
Y147830D01*
X71650Y146361D02*
X72650Y147362D01*
X71181Y146361D02*
X71650D01*
X68050Y143230D02*
X71181Y146361D01*
X31680Y143230D02*
X68050D01*
X110393Y176092D02*
Y183767D01*
X72781Y148850D02*
X73230Y149299D01*
Y154720D01*
X117370Y183230D02*
X123876D01*
X123780Y175380D02*
Y182940D01*
X118600Y170200D02*
X123780Y175380D01*
X46080Y177980D02*
X51665Y172395D01*
X80942D01*
X29400Y99316D02*
X30800Y97916D01*
Y97800D02*
Y97916D01*
X30590Y98190D02*
X30830Y97950D01*
X30590Y102490D02*
X46080Y117980D01*
X30590Y98190D02*
Y102490D01*
X29400Y99316D02*
Y128050D01*
X29280Y128060D02*
Y137980D01*
X29090Y127870D02*
X29280Y128060D01*
X36000Y128050D02*
X36070Y127980D01*
X45580D01*
X45630Y128030D01*
X35880Y137980D02*
X45430D01*
X45520Y138070D01*
X103793Y172415D02*
X109918Y166290D01*
X103793Y172415D02*
Y176092D01*
X123876Y183230D02*
Y186174D01*
X156660Y186760D02*
X156820Y186600D01*
X124462Y186760D02*
X156660D01*
X123876Y186174D02*
X124462Y186760D01*
X117270Y183330D02*
X117370Y183230D01*
X103826Y190815D02*
Y191283D01*
X104826Y192283D01*
X105295D01*
X109191Y196180D01*
X156700D01*
X96840Y176092D02*
X103793D01*
X96783Y176035D02*
X96840Y176092D01*
X96827Y190870D02*
X103771D01*
X123804Y183302D02*
X123821Y183285D01*
X110393Y183767D02*
X110426Y183800D01*
Y190815D01*
X90039Y203822D02*
X98468D01*
X89408Y203192D02*
X90039Y203822D01*
X152350Y208450D02*
X156860Y203940D01*
X150680Y208450D02*
X152350D01*
X135010Y208530D02*
X150600D01*
X150680Y208450D01*
X120808Y218703D02*
X124837D01*
X135010Y208530D01*
D18*
X46080Y197980D02*
X46903Y197157D01*
X76910Y188960D02*
X77210D01*
X72920Y192950D02*
X76910Y188960D01*
X54290Y192950D02*
X72920D01*
X46903Y197157D02*
X50083D01*
X54290Y192950D01*
X70000Y57650D02*
Y61740D01*
X70980Y62720D01*
X56570Y148470D02*
X61380Y153280D01*
Y163490D01*
X149020Y161350D02*
X156380Y168710D01*
X103080Y161350D02*
X149020D01*
X145070Y163740D02*
X152760Y171430D01*
X101410Y163740D02*
X145070D01*
X56080Y178150D02*
Y187980D01*
Y178150D02*
X56110Y178120D01*
X55900Y148190D02*
X56110Y147980D01*
X65900D01*
X56570Y148240D02*
Y148470D01*
X46080Y147980D02*
Y157980D01*
Y147330D02*
Y147980D01*
X46040Y147290D02*
X46080Y147330D01*
Y188510D02*
Y197980D01*
Y188510D02*
X46310Y188280D01*
X54350Y137590D02*
X56300D01*
X51290Y124920D02*
Y134530D01*
X54350Y137590D01*
X51290Y124920D02*
X52770Y123440D01*
X94710D01*
X102670Y160940D02*
X103080Y161350D01*
X102670Y131400D02*
Y160940D01*
X94710Y123440D02*
X102670Y131400D01*
X57600Y128330D02*
X57950Y127980D01*
X95430D01*
X100030Y132580D01*
Y162360D01*
X101410Y163740D01*
X66332Y203192D02*
X82808D01*
X64941Y201800D02*
X66332Y203192D01*
X64680Y201800D02*
X64941D01*
X65900Y147980D02*
X66050Y147830D01*
X103771Y190870D02*
X103826Y190815D01*
X111588Y211652D02*
X114208D01*
X110559Y212681D02*
X111588Y211652D01*
X102208Y212681D02*
X110559D01*
X114208Y211652D02*
Y218703D01*
X104397Y50900D02*
Y59323D01*
X99818Y63902D02*
X104397Y59323D01*
X96350Y63902D02*
X99818D01*
X70500Y63200D02*
X70980Y62720D01*
X86700Y40247D02*
Y47300D01*
X85410Y38957D02*
X86700Y40247D01*
X85410Y38550D02*
Y38957D01*
X97000Y50800D02*
X104297D01*
X104397Y50900D01*
X104715Y51218D02*
X111500D01*
X104397Y50900D02*
X104715Y51218D01*
X74592Y67761D02*
X80208D01*
X70500Y63669D02*
X74592Y67761D01*
X70500Y63200D02*
Y63669D01*
X192600Y156358D02*
X193864Y157622D01*
D19*
X191517Y157440D02*
X192600Y156358D01*
X188652Y157440D02*
X191517D01*
X187475Y158618D02*
X188652Y157440D01*
X187251Y158618D02*
X187475D01*
X200100Y156400D02*
X200879Y157179D01*
X204139D01*
X206270Y159310D01*
X206490D01*
X191858Y224401D02*
X192100Y224642D01*
X188065Y224401D02*
X191858D01*
X186502Y222838D02*
X188065Y224401D01*
X186278Y222838D02*
X186502D01*
X199400Y224743D02*
X205534D01*
X206856Y223420D01*
X207080D01*
D30*
X73929Y72800D02*
D03*
X68614D02*
D03*
D41*
X194060Y127860D02*
D03*
X194150Y118001D02*
D03*
X100100Y91500D02*
D03*
X49300Y17200D02*
D03*
D47*
X98468Y203822D02*
D03*
X105948D02*
D03*
X102208Y212681D02*
D03*
D48*
X72650Y147830D02*
D03*
X66050D02*
D03*
X29280Y137980D02*
D03*
X35880D02*
D03*
X29400Y128050D02*
D03*
X36000D02*
D03*
X120808Y218703D02*
D03*
X114208D02*
D03*
X89408Y203192D02*
D03*
X82808D02*
D03*
X123876Y183230D02*
D03*
X130476D02*
D03*
X110277Y183195D02*
D03*
X116877D02*
D03*
X96827Y190870D02*
D03*
X90227D02*
D03*
X110426Y190815D02*
D03*
X103826D02*
D03*
X110393Y176092D02*
D03*
X103793D02*
D03*
X96783Y176035D02*
D03*
X90183D02*
D03*
X122600Y66800D02*
D03*
X116000D02*
D03*
X63900Y63200D02*
D03*
X70500D02*
D03*
X70900Y51000D02*
D03*
X64300D02*
D03*
D49*
X260554Y105500D02*
D03*
X216853D02*
D03*
X216942Y272000D02*
D03*
X260643D02*
D03*
X216704Y217000D02*
D03*
X260404D02*
D03*
X216942Y160000D02*
D03*
X260643D02*
D03*
D50*
X30470Y294537D02*
D03*
X22990Y265403D02*
D03*
D51*
X11967D02*
D03*
D52*
X59998D02*
D03*
D53*
X79900Y99000D02*
D03*
Y92400D02*
D03*
X114208Y211652D02*
D03*
Y205052D02*
D03*
X115674Y83251D02*
D03*
Y76651D02*
D03*
X104397Y50900D02*
D03*
Y44300D02*
D03*
X97000Y50800D02*
D03*
Y44200D02*
D03*
X86700Y53900D02*
D03*
Y47300D02*
D03*
X79597Y53900D02*
D03*
Y47300D02*
D03*
X122874Y83251D02*
D03*
Y76651D02*
D03*
X120500Y48500D02*
D03*
Y55100D02*
D03*
D54*
X88279Y67761D02*
D03*
D55*
X80208D02*
D03*
Y69729D02*
D03*
Y71698D02*
D03*
Y65792D02*
D03*
Y63824D02*
D03*
X96350Y63902D02*
D03*
Y65871D02*
D03*
Y71776D02*
D03*
Y69808D02*
D03*
Y67839D02*
D03*
D56*
X67591Y79800D02*
D03*
Y88068D02*
D03*
D57*
X56200Y100800D02*
D03*
Y89400D02*
D03*
X45100Y100900D02*
D03*
Y89500D02*
D03*
D58*
X111500Y51218D02*
D03*
Y46100D02*
D03*
D59*
X196340Y167500D02*
D03*
Y173800D02*
D03*
X196493Y213950D02*
D03*
Y207650D02*
D03*
X205171Y213970D02*
D03*
Y207670D02*
D03*
X205018Y167531D02*
D03*
Y173830D02*
D03*
D60*
X199400Y230058D02*
D03*
Y224743D02*
D03*
X192100Y229958D02*
D03*
Y224642D02*
D03*
X192600Y156358D02*
D03*
Y151042D02*
D03*
X200100Y156400D02*
D03*
Y151085D02*
D03*
D61*
X59760Y223130D02*
X88070D01*
X88190Y223250D01*
X216942Y272000D02*
Y282892D01*
Y248334D02*
Y272000D01*
Y282892D02*
X217030Y282980D01*
X216704Y217186D02*
X216880Y217010D01*
X216704Y217186D02*
Y226395D01*
X216853Y105500D02*
Y129955D01*
Y92923D02*
Y105500D01*
X216760Y92830D02*
X216853Y92923D01*
X192100Y229958D02*
Y242500D01*
X195678Y246078D02*
X214686D01*
X192100Y242500D02*
X195678Y246078D01*
X214686D02*
X216942Y248334D01*
X213041Y230058D02*
X216704Y226395D01*
X199400Y230058D02*
X213041D01*
X215127Y131681D02*
X216853Y129955D01*
X204119Y131681D02*
X215127D01*
X192600Y143200D02*
X204119Y131681D01*
X192600Y143200D02*
Y151042D01*
X200100Y151085D02*
X209209D01*
X216942Y158819D01*
Y160000D01*
D62*
X216704Y203396D02*
X217130Y202970D01*
X216704Y203396D02*
Y217000D01*
X216942Y160000D02*
Y174952D01*
X218030Y176040D01*
X261050Y214470D02*
X261130Y214550D01*
X261050Y207450D02*
Y214470D01*
X267000Y201500D02*
X298054D01*
X261050Y207450D02*
X267000Y201500D01*
X298054D02*
X327200D01*
X340400Y100180D02*
X354350D01*
X334600Y94380D02*
X340400Y100180D01*
X334600Y48100D02*
Y94380D01*
X339902Y263790D02*
X356820D01*
X334100Y257988D02*
X339902Y263790D01*
X194105Y118046D02*
X194150Y118001D01*
X260554Y92500D02*
Y105500D01*
X260404Y217000D02*
X260729Y216675D01*
X265412Y37055D02*
X297535D01*
X260554Y41913D02*
X265412Y37055D01*
X260554Y41913D02*
Y92500D01*
X297535Y37055D02*
X323555D01*
X334600Y48100D01*
X327200Y201500D02*
X334100Y208400D01*
Y257988D01*
D63*
X164480Y78020D02*
X164900Y78440D01*
X24420Y45310D02*
Y115420D01*
Y45310D02*
X37330Y32400D01*
X164480Y40530D02*
Y78020D01*
X37330Y32400D02*
X156350D01*
X164480Y40530D01*
X79900Y92400D02*
X89124D01*
X90024Y91500D01*
X100100D01*
X67591Y88068D02*
X69756D01*
X74088Y92400D01*
X79900D01*
D64*
X261660Y173280D02*
X266558Y178178D01*
X261660Y161010D02*
Y173280D01*
X266558Y178178D02*
X297842D01*
X260643Y272000D02*
Y334393D01*
X260750Y334500D01*
X343170Y115640D02*
X353930D01*
X335535Y123275D02*
X343170Y115640D01*
X355394Y278850D02*
X357000D01*
X341790D02*
X355394D01*
X357000D02*
X357250Y279100D01*
X335100Y285540D02*
X341790Y278850D01*
X335100Y285540D02*
Y333900D01*
X298054Y340230D02*
Y340690D01*
X260049Y160594D02*
X260643Y160000D01*
X260599Y272044D02*
X260643Y272000D01*
X266690Y340690D02*
X298054D01*
X260800Y334800D02*
X266690Y340690D01*
X297842Y178178D02*
X329088D01*
X335535Y171730D01*
Y123275D02*
Y171730D01*
X298054Y340690D02*
X328310D01*
X335100Y333900D01*
D65*
X173070Y134450D02*
X173335Y134186D01*
D66*
X30800Y97800D02*
X34930D01*
X37800Y91114D02*
Y94930D01*
X44903Y89697D02*
X45100Y89500D01*
X39217Y89697D02*
X44903D01*
X37800Y91114D02*
X39217Y89697D01*
X34930Y97800D02*
X37800Y94930D01*
D67*
X104397Y44300D02*
X104760Y43937D01*
Y37320D02*
Y43937D01*
X122600Y66331D02*
Y66800D01*
Y66331D02*
X125332Y63599D01*
Y62048D02*
Y63599D01*
Y62048D02*
X125620Y61760D01*
X97000Y44200D02*
X104297D01*
X104397Y44300D01*
X120500Y55100D02*
Y57902D01*
X112580Y60130D02*
X118272D01*
X120500Y57902D01*
X106839Y65871D02*
X112580Y60130D01*
X96350Y65871D02*
X106839D01*
X96350Y67839D02*
X114961D01*
X116000Y66800D01*
X79597Y53900D02*
X86700D01*
X79597D02*
Y56597D01*
X77660Y58533D02*
X79597Y56597D01*
X79037Y63824D02*
X80208D01*
X77660Y62447D02*
X79037Y63824D01*
X77660Y58533D02*
Y62447D01*
X80140Y65860D02*
X80208Y65792D01*
X76690Y65860D02*
X80140D01*
X75830Y65000D02*
X76690Y65860D01*
X75830Y59130D02*
Y65000D01*
X70900Y51000D02*
Y54200D01*
X75830Y59130D01*
D68*
X152630Y247630D02*
D03*
X172315D02*
D03*
X172882Y133800D02*
D03*
X153198D02*
D03*
X164480Y78670D02*
D03*
X144795D02*
D03*
D69*
X210810Y33394D02*
D03*
X195810D02*
D03*
X355394Y278850D02*
D03*
Y263850D02*
D03*
X354634Y115390D02*
D03*
Y100390D02*
D03*
D70*
X46080Y207980D02*
D03*
D71*
X56080D02*
D03*
X46080Y197980D02*
D03*
X56080D02*
D03*
X46080Y187980D02*
D03*
X56080D02*
D03*
X46080Y177980D02*
D03*
X56080D02*
D03*
X46080Y167980D02*
D03*
X56080D02*
D03*
X46080Y157980D02*
D03*
X56080D02*
D03*
X46080Y147980D02*
D03*
X56080D02*
D03*
X46080Y137980D02*
D03*
X56080D02*
D03*
X46080Y127980D02*
D03*
X56080D02*
D03*
X46080Y117980D02*
D03*
X56080D02*
D03*
X217110Y283010D02*
D03*
X216970Y92360D02*
D03*
D72*
X374303Y364252D02*
D03*
X374302Y15748D02*
D03*
X15748D02*
D03*
Y364252D02*
D03*
D73*
X298054Y281635D02*
D03*
Y340690D02*
D03*
X297842Y119123D02*
D03*
Y178178D02*
D03*
X297535Y37055D02*
D03*
Y96110D02*
D03*
X298054Y201500D02*
D03*
Y260555D02*
D03*
D74*
X27321Y279970D02*
D03*
X54880D02*
D03*
D75*
X183040Y182840D02*
D03*
X177470Y183090D02*
D03*
X172120Y182840D02*
D03*
X180190Y186730D02*
D03*
X175000Y186820D02*
D03*
X182290Y189910D02*
D03*
X177500Y190000D02*
D03*
X172490Y190540D02*
D03*
X179780Y193930D02*
D03*
X175050D02*
D03*
X181660Y197360D02*
D03*
X177260Y197400D02*
D03*
X172660Y197320D02*
D03*
X70000Y57650D02*
D03*
X110040Y166520D02*
D03*
X45530Y271510D02*
D03*
X61380Y163490D02*
D03*
X67650Y176150D02*
D03*
X76780Y188810D02*
D03*
X156380Y168710D02*
D03*
X152760Y171430D02*
D03*
X62715Y252505D02*
D03*
X73230Y154720D02*
D03*
X64680Y201800D02*
D03*
X118600Y170200D02*
D03*
X80942Y172395D02*
D03*
X24420Y115420D02*
D03*
X156820Y186600D02*
D03*
X156700Y196180D02*
D03*
X156860Y203940D02*
D03*
X30590Y97800D02*
D03*
X104760Y37320D02*
D03*
X125620Y61760D02*
D03*
X85410Y38550D02*
D03*
X187251Y158618D02*
D03*
X206490Y159310D02*
D03*
X186278Y222838D02*
D03*
X207080Y223420D02*
D03*
X204220Y181750D02*
D03*
X206870Y179420D02*
D03*
X201620Y179310D02*
D03*
X197840Y179390D02*
D03*
X197720Y183070D02*
D03*
X197690Y196870D02*
D03*
X206710Y200740D02*
D03*
X203890Y198250D02*
D03*
X201390Y200850D02*
D03*
X197800Y200710D02*
D03*
D76*
X88190Y223250D02*
D03*
X59760Y223130D02*
D03*
D77*
X366142Y342520D02*
D03*
X372047Y330709D02*
D03*
X366142Y318898D02*
D03*
X372047Y307086D02*
D03*
X366142Y295275D02*
D03*
X372047Y283465D02*
D03*
Y259842D02*
D03*
X366142Y248031D02*
D03*
X372047Y236220D02*
D03*
X366142Y224409D02*
D03*
X372047Y212598D02*
D03*
X366142Y200787D02*
D03*
X372047Y188976D02*
D03*
X366142Y177165D02*
D03*
X372047Y165354D02*
D03*
X366142Y153543D02*
D03*
X372047Y141732D02*
D03*
X366142Y129921D02*
D03*
X372047Y118110D02*
D03*
Y94488D02*
D03*
X366142Y82677D02*
D03*
X372047Y70866D02*
D03*
X366142Y59055D02*
D03*
X372047Y47244D02*
D03*
X366142Y35433D02*
D03*
X354331Y366142D02*
D03*
Y342520D02*
D03*
X360236Y330709D02*
D03*
X354331Y318898D02*
D03*
X360236Y307086D02*
D03*
X354331Y295275D02*
D03*
Y248031D02*
D03*
X360236Y236220D02*
D03*
X354331Y224409D02*
D03*
X360236Y212598D02*
D03*
X354331Y200787D02*
D03*
X360236Y188976D02*
D03*
X354331Y177165D02*
D03*
X360236Y165354D02*
D03*
X354331Y153543D02*
D03*
X360236Y141732D02*
D03*
X354331Y82677D02*
D03*
X360236Y70866D02*
D03*
X354331Y59055D02*
D03*
X360236Y47244D02*
D03*
X354331Y35433D02*
D03*
X342520Y366142D02*
D03*
X348425Y354331D02*
D03*
Y330709D02*
D03*
Y307086D02*
D03*
Y236220D02*
D03*
Y212598D02*
D03*
Y188976D02*
D03*
Y70866D02*
D03*
Y47244D02*
D03*
X342520Y35433D02*
D03*
X348425Y23622D02*
D03*
X330709Y366142D02*
D03*
X336614Y354331D02*
D03*
Y23622D02*
D03*
X318898Y366142D02*
D03*
X324803Y354331D02*
D03*
X318898Y295275D02*
D03*
Y271654D02*
D03*
Y248031D02*
D03*
Y224409D02*
D03*
Y129921D02*
D03*
Y106299D02*
D03*
Y82677D02*
D03*
Y59055D02*
D03*
X324803Y23622D02*
D03*
X307086Y366142D02*
D03*
X312992Y354331D02*
D03*
X307086Y295275D02*
D03*
X312992Y283465D02*
D03*
X307086Y271654D02*
D03*
X312992Y259842D02*
D03*
X307086Y129921D02*
D03*
X312992Y118110D02*
D03*
X307086Y106299D02*
D03*
X312992Y94488D02*
D03*
X295275Y366142D02*
D03*
Y271654D02*
D03*
Y106299D02*
D03*
X283465Y366142D02*
D03*
X289370Y354331D02*
D03*
Y283465D02*
D03*
X283465Y271654D02*
D03*
X289370Y259842D02*
D03*
X283465Y248031D02*
D03*
Y129921D02*
D03*
X289370Y118110D02*
D03*
X283465Y106299D02*
D03*
X289370Y94488D02*
D03*
X283465Y82677D02*
D03*
X271654Y366142D02*
D03*
X277559Y354331D02*
D03*
Y307086D02*
D03*
Y283465D02*
D03*
Y259842D02*
D03*
X271654Y248031D02*
D03*
X277559Y141732D02*
D03*
X271654Y129921D02*
D03*
X277559Y118110D02*
D03*
Y94488D02*
D03*
X259842Y366142D02*
D03*
X265748Y354331D02*
D03*
X259842Y248031D02*
D03*
X265748Y236220D02*
D03*
Y141732D02*
D03*
X259842Y129921D02*
D03*
X248031Y366142D02*
D03*
X253937Y354331D02*
D03*
X248031Y342520D02*
D03*
Y248031D02*
D03*
X253937Y236220D02*
D03*
X248031Y200787D02*
D03*
X253937Y188976D02*
D03*
X248031Y177165D02*
D03*
X253937Y141732D02*
D03*
X248031Y129921D02*
D03*
Y35433D02*
D03*
X253937Y23622D02*
D03*
X236220Y366142D02*
D03*
X242126Y354331D02*
D03*
X236220Y342520D02*
D03*
X242126Y330709D02*
D03*
X236220Y318898D02*
D03*
X242126Y307086D02*
D03*
X236220Y295275D02*
D03*
X242126Y283465D02*
D03*
X236220Y271654D02*
D03*
X242126Y259842D02*
D03*
X236220Y248031D02*
D03*
X242126Y236220D02*
D03*
X236220Y224409D02*
D03*
X242126Y212598D02*
D03*
X236220Y200787D02*
D03*
X242126Y188976D02*
D03*
X236220Y177165D02*
D03*
X242126Y165354D02*
D03*
X236220Y153543D02*
D03*
X242126Y141732D02*
D03*
X236220Y129921D02*
D03*
X242126Y118110D02*
D03*
X236220Y106299D02*
D03*
X242126Y94488D02*
D03*
X236220Y82677D02*
D03*
X242126Y70866D02*
D03*
X236220Y59055D02*
D03*
X242126Y47244D02*
D03*
X236220Y35433D02*
D03*
X242126Y23622D02*
D03*
X224409Y366142D02*
D03*
X230315Y354331D02*
D03*
X224409Y342520D02*
D03*
X230315Y330709D02*
D03*
X224409Y318898D02*
D03*
X230315Y307086D02*
D03*
Y188976D02*
D03*
Y70866D02*
D03*
Y47244D02*
D03*
Y23622D02*
D03*
X212598Y366142D02*
D03*
X218504Y354331D02*
D03*
X212598Y342520D02*
D03*
X218504Y330709D02*
D03*
X212598Y318898D02*
D03*
X218504Y307086D02*
D03*
X200787Y366142D02*
D03*
X206693Y354331D02*
D03*
X200787Y342520D02*
D03*
X206693Y330709D02*
D03*
X200787Y318898D02*
D03*
X206693Y307086D02*
D03*
X200787Y295275D02*
D03*
X188976Y366142D02*
D03*
X194882Y354331D02*
D03*
X188976Y342520D02*
D03*
Y318898D02*
D03*
X194882Y307086D02*
D03*
X188976Y295275D02*
D03*
X194882Y283465D02*
D03*
X188976Y271654D02*
D03*
X194882Y259842D02*
D03*
X188976Y59055D02*
D03*
X177165Y366142D02*
D03*
X183071Y354331D02*
D03*
X177165Y342520D02*
D03*
Y318898D02*
D03*
X183071Y307086D02*
D03*
X177165Y295275D02*
D03*
X183071Y283465D02*
D03*
X177165Y271654D02*
D03*
X183071Y47244D02*
D03*
X177165Y35433D02*
D03*
X183071Y23622D02*
D03*
X165354Y366142D02*
D03*
X171260Y354331D02*
D03*
X165354Y342520D02*
D03*
Y318898D02*
D03*
X171260Y307086D02*
D03*
X165354Y295275D02*
D03*
X171260Y283465D02*
D03*
X165354Y271654D02*
D03*
X171260Y23622D02*
D03*
X153543Y366142D02*
D03*
X159449Y354331D02*
D03*
X153543Y342520D02*
D03*
Y318898D02*
D03*
X159449Y307086D02*
D03*
X153543Y295275D02*
D03*
X159449Y283465D02*
D03*
X153543Y271654D02*
D03*
X141732Y366142D02*
D03*
X147638Y354331D02*
D03*
X141732Y342520D02*
D03*
Y318898D02*
D03*
X147638Y307086D02*
D03*
X141732Y295275D02*
D03*
X147638Y283465D02*
D03*
X141732Y271654D02*
D03*
X147638Y259842D02*
D03*
X141732Y248031D02*
D03*
X147638Y141732D02*
D03*
X141732Y129921D02*
D03*
X147638Y118110D02*
D03*
X141732Y59055D02*
D03*
X147638Y47244D02*
D03*
X129921Y366142D02*
D03*
X135827Y354331D02*
D03*
X129921Y342520D02*
D03*
Y318898D02*
D03*
X135827Y307086D02*
D03*
X129921Y295275D02*
D03*
X135827Y283465D02*
D03*
X129921Y271654D02*
D03*
X135827Y259842D02*
D03*
X129921Y248031D02*
D03*
X135827Y236220D02*
D03*
Y141732D02*
D03*
X129921Y129921D02*
D03*
X135827Y118110D02*
D03*
X129921Y106299D02*
D03*
X118110Y366142D02*
D03*
X124016Y354331D02*
D03*
X118110Y342520D02*
D03*
Y318898D02*
D03*
X124016Y307086D02*
D03*
X118110Y295275D02*
D03*
X124016Y283465D02*
D03*
X118110Y271654D02*
D03*
X124016Y259842D02*
D03*
X118110Y248031D02*
D03*
X124016Y236220D02*
D03*
Y141732D02*
D03*
X118110Y129921D02*
D03*
X124016Y118110D02*
D03*
X118110Y106299D02*
D03*
X106299Y366142D02*
D03*
X112205Y354331D02*
D03*
X106299Y342520D02*
D03*
Y318898D02*
D03*
X112205Y307086D02*
D03*
X106299Y295275D02*
D03*
X112205Y283465D02*
D03*
X106299Y271654D02*
D03*
X112205Y259842D02*
D03*
X106299Y248031D02*
D03*
X112205Y236220D02*
D03*
Y118110D02*
D03*
X106299Y106299D02*
D03*
X94488Y366142D02*
D03*
X100394Y354331D02*
D03*
X94488Y342520D02*
D03*
Y318898D02*
D03*
X100394Y307086D02*
D03*
X94488Y295275D02*
D03*
X100394Y283465D02*
D03*
X94488Y271654D02*
D03*
X100394Y259842D02*
D03*
X94488Y248031D02*
D03*
X100394Y236220D02*
D03*
X94488Y106299D02*
D03*
X82677Y366142D02*
D03*
X88583Y354331D02*
D03*
X82677Y342520D02*
D03*
Y318898D02*
D03*
X88583Y307086D02*
D03*
X82677Y295275D02*
D03*
X88583Y283465D02*
D03*
X82677Y271654D02*
D03*
X88583Y259842D02*
D03*
X82677Y248031D02*
D03*
X88583Y236220D02*
D03*
Y141732D02*
D03*
X82677Y106299D02*
D03*
X70866Y366142D02*
D03*
X76772Y354331D02*
D03*
X70866Y342520D02*
D03*
X76772Y330709D02*
D03*
X70866Y318898D02*
D03*
X76772Y307086D02*
D03*
X70866Y295275D02*
D03*
X76772Y283465D02*
D03*
Y259842D02*
D03*
X70866Y106299D02*
D03*
X59055Y366142D02*
D03*
X64961Y354331D02*
D03*
X59055Y342520D02*
D03*
X64961Y330709D02*
D03*
X59055Y318898D02*
D03*
X64961Y307086D02*
D03*
X59055Y295275D02*
D03*
X47244Y366142D02*
D03*
X53150Y354331D02*
D03*
X47244Y342520D02*
D03*
X53150Y330709D02*
D03*
X47244Y318898D02*
D03*
X53150Y307086D02*
D03*
X47244Y295275D02*
D03*
X53150Y236220D02*
D03*
Y47244D02*
D03*
X35433Y366142D02*
D03*
X41339Y354331D02*
D03*
X35433Y342520D02*
D03*
X41339Y330709D02*
D03*
X35433Y318898D02*
D03*
Y248031D02*
D03*
X41339Y236220D02*
D03*
X23622Y342520D02*
D03*
X29528Y330709D02*
D03*
X23622Y318898D02*
D03*
Y248031D02*
D03*
X29528Y236220D02*
D03*
X23622Y224409D02*
D03*
X17717Y330709D02*
D03*
Y236220D02*
D03*
Y212598D02*
D03*
D78*
X217130Y202970D02*
D03*
X218030Y176040D02*
D03*
M02*
