G04*
G04 #@! TF.GenerationSoftware,Altium Limited,Altium Designer,20.0.13 (296)*
G04*
G04 Layer_Color=16711935*
%FSLAX25Y25*%
%MOIN*%
G70*
G01*
G75*
%ADD10C,0.00787*%
%ADD13C,0.01000*%
%ADD16C,0.00394*%
D10*
X276401Y346596D02*
X319708D01*
X276401Y275729D02*
Y346596D01*
Y275729D02*
X319708D01*
Y346596D01*
X276188Y184083D02*
X319495D01*
X276188Y113217D02*
Y184083D01*
Y113217D02*
X319495D01*
Y184083D01*
X275882Y102016D02*
X319189D01*
X275882Y31150D02*
Y102016D01*
Y31150D02*
X319189D01*
Y102016D01*
X276401Y266461D02*
X319708D01*
X276401Y195595D02*
Y266461D01*
Y195595D02*
X319708D01*
Y266461D01*
D13*
X149510Y222810D02*
Y233810D01*
Y222810D02*
X156510D01*
Y233810D01*
X149510D02*
X156510D01*
X17669Y81944D02*
Y92944D01*
X10669D02*
X17669D01*
X10669Y81944D02*
Y92944D01*
Y81944D02*
X17669D01*
X10594Y68100D02*
X21595D01*
X10594Y61100D02*
Y68100D01*
Y61100D02*
X21595D01*
Y68100D01*
D16*
X187079Y247630D02*
X187058Y248627D01*
X186998Y249623D01*
X186897Y250615D01*
X186756Y251602D01*
X186575Y252583D01*
X186354Y253556D01*
X186095Y254519D01*
X185796Y255470D01*
X185459Y256409D01*
X185085Y257334D01*
X184673Y258242D01*
X184224Y259133D01*
X183740Y260005D01*
X183221Y260857D01*
X182668Y261687D01*
X182082Y262494D01*
X181464Y263276D01*
X180814Y264033D01*
X180134Y264763D01*
X179425Y265464D01*
X178689Y266137D01*
X177925Y266779D01*
X177137Y267389D01*
X176324Y267967D01*
X175488Y268512D01*
X174631Y269022D01*
X173754Y269497D01*
X172859Y269937D01*
X171947Y270339D01*
X171018Y270705D01*
X170076Y271032D01*
X169122Y271321D01*
X168156Y271571D01*
X167181Y271781D01*
X166199Y271953D01*
X165210Y272083D01*
X164217Y272174D01*
X163221Y272225D01*
X162223Y272235D01*
X161226Y272205D01*
X160231Y272134D01*
X159240Y272023D01*
X158254Y271872D01*
X157275Y271681D01*
X156305Y271451D01*
X155345Y271181D01*
X154396Y270873D01*
X153461Y270527D01*
X152540Y270143D01*
X151636Y269722D01*
X150750Y269264D01*
X149883Y268772D01*
X149036Y268244D01*
X148212Y267682D01*
X147411Y267088D01*
X146635Y266462D01*
X145885Y265804D01*
X145162Y265117D01*
X144467Y264401D01*
X143802Y263658D01*
X143168Y262888D01*
X142566Y262093D01*
X141996Y261275D01*
X141460Y260434D01*
X140958Y259572D01*
X140492Y258690D01*
X140062Y257790D01*
X139668Y256873D01*
X139313Y255942D01*
X138995Y254996D01*
X138716Y254039D01*
X138475Y253071D01*
X138275Y252094D01*
X138113Y251109D01*
X137993Y250119D01*
X137912Y249125D01*
X137871Y248129D01*
Y247131D01*
X137912Y246135D01*
X137993Y245141D01*
X138113Y244151D01*
X138275Y243166D01*
X138475Y242189D01*
X138716Y241221D01*
X138995Y240264D01*
X139313Y239318D01*
X139668Y238387D01*
X140062Y237470D01*
X140492Y236570D01*
X140958Y235688D01*
X141460Y234826D01*
X141996Y233985D01*
X142566Y233167D01*
X143168Y232372D01*
X143802Y231602D01*
X144467Y230859D01*
X145162Y230143D01*
X145885Y229456D01*
X146635Y228798D01*
X147411Y228172D01*
X148212Y227577D01*
X149036Y227016D01*
X149883Y226488D01*
X150750Y225996D01*
X151636Y225538D01*
X152540Y225117D01*
X153461Y224733D01*
X154396Y224387D01*
X155345Y224079D01*
X156305Y223809D01*
X157275Y223579D01*
X158254Y223388D01*
X159240Y223237D01*
X160231Y223126D01*
X161226Y223055D01*
X162223Y223025D01*
X163221Y223035D01*
X164217Y223086D01*
X165210Y223177D01*
X166199Y223307D01*
X167181Y223479D01*
X168156Y223689D01*
X169122Y223939D01*
X170076Y224228D01*
X171018Y224555D01*
X171947Y224921D01*
X172859Y225323D01*
X173755Y225763D01*
X174631Y226238D01*
X175488Y226748D01*
X176324Y227293D01*
X177137Y227871D01*
X177925Y228481D01*
X178689Y229123D01*
X179425Y229796D01*
X180134Y230497D01*
X180814Y231227D01*
X181464Y231984D01*
X182082Y232766D01*
X182668Y233573D01*
X183221Y234403D01*
X183740Y235255D01*
X184224Y236127D01*
X184673Y237018D01*
X185085Y237926D01*
X185459Y238851D01*
X185796Y239789D01*
X186095Y240741D01*
X186354Y241704D01*
X186575Y242677D01*
X186756Y243658D01*
X186897Y244645D01*
X186998Y245637D01*
X187058Y246633D01*
X187079Y247630D01*
X187646Y133800D02*
X187626Y134797D01*
X187565Y135793D01*
X187464Y136785D01*
X187323Y137772D01*
X187143Y138753D01*
X186922Y139726D01*
X186662Y140689D01*
X186364Y141640D01*
X186027Y142579D01*
X185652Y143504D01*
X185240Y144412D01*
X184792Y145303D01*
X184308Y146175D01*
X183789Y147027D01*
X183236Y147857D01*
X182650Y148664D01*
X182031Y149446D01*
X181381Y150203D01*
X180702Y150933D01*
X179993Y151634D01*
X179256Y152307D01*
X178493Y152949D01*
X177704Y153559D01*
X176891Y154137D01*
X176056Y154682D01*
X175199Y155192D01*
X174322Y155667D01*
X173426Y156107D01*
X172514Y156509D01*
X171586Y156875D01*
X170644Y157202D01*
X169689Y157491D01*
X168724Y157741D01*
X167749Y157951D01*
X166766Y158123D01*
X165777Y158254D01*
X164784Y158344D01*
X163788Y158395D01*
X162791Y158405D01*
X161794Y158375D01*
X160799Y158304D01*
X159808Y158193D01*
X158822Y158042D01*
X157843Y157851D01*
X156872Y157621D01*
X155912Y157351D01*
X154964Y157043D01*
X154028Y156697D01*
X153108Y156313D01*
X152204Y155892D01*
X151317Y155434D01*
X150450Y154941D01*
X149604Y154414D01*
X148779Y153852D01*
X147978Y153258D01*
X147202Y152632D01*
X146452Y151974D01*
X145729Y151287D01*
X145035Y150571D01*
X144370Y149828D01*
X143736Y149058D01*
X143133Y148263D01*
X142563Y147445D01*
X142027Y146604D01*
X141526Y145741D01*
X141059Y144860D01*
X140629Y143960D01*
X140236Y143043D01*
X139880Y142112D01*
X139562Y141166D01*
X139283Y140209D01*
X139043Y139241D01*
X138842Y138264D01*
X138681Y137279D01*
X138560Y136289D01*
X138479Y135295D01*
X138439Y134299D01*
Y133301D01*
X138479Y132305D01*
X138560Y131311D01*
X138681Y130321D01*
X138842Y129336D01*
X139043Y128359D01*
X139283Y127391D01*
X139562Y126434D01*
X139880Y125488D01*
X140236Y124557D01*
X140629Y123640D01*
X141059Y122740D01*
X141526Y121859D01*
X142027Y120996D01*
X142563Y120155D01*
X143133Y119337D01*
X143736Y118542D01*
X144370Y117772D01*
X145035Y117029D01*
X145729Y116313D01*
X146452Y115626D01*
X147202Y114968D01*
X147978Y114342D01*
X148779Y113748D01*
X149604Y113186D01*
X150450Y112659D01*
X151317Y112166D01*
X152204Y111708D01*
X153108Y111287D01*
X154028Y110903D01*
X154964Y110557D01*
X155912Y110249D01*
X156872Y109979D01*
X157843Y109749D01*
X158822Y109558D01*
X159808Y109407D01*
X160799Y109296D01*
X161794Y109225D01*
X162791Y109195D01*
X163788Y109205D01*
X164784Y109256D01*
X165777Y109346D01*
X166766Y109477D01*
X167749Y109649D01*
X168724Y109859D01*
X169689Y110109D01*
X170644Y110398D01*
X171586Y110725D01*
X172514Y111091D01*
X173426Y111493D01*
X174322Y111933D01*
X175199Y112408D01*
X176056Y112918D01*
X176891Y113463D01*
X177704Y114041D01*
X178493Y114651D01*
X179256Y115293D01*
X179993Y115966D01*
X180702Y116667D01*
X181381Y117397D01*
X182031Y118154D01*
X182650Y118936D01*
X183236Y119743D01*
X183789Y120573D01*
X184308Y121425D01*
X184792Y122297D01*
X185240Y123188D01*
X185652Y124096D01*
X186027Y125021D01*
X186364Y125959D01*
X186662Y126911D01*
X186922Y127874D01*
X187143Y128847D01*
X187323Y129828D01*
X187464Y130815D01*
X187565Y131807D01*
X187626Y132803D01*
X187646Y133800D01*
X179244Y78670D02*
X179224Y79667D01*
X179163Y80663D01*
X179062Y81655D01*
X178921Y82642D01*
X178740Y83623D01*
X178519Y84596D01*
X178260Y85559D01*
X177961Y86510D01*
X177624Y87449D01*
X177250Y88374D01*
X176838Y89282D01*
X176390Y90173D01*
X175905Y91045D01*
X175387Y91897D01*
X174833Y92727D01*
X174247Y93534D01*
X173629Y94316D01*
X172979Y95073D01*
X172299Y95803D01*
X171590Y96504D01*
X170854Y97177D01*
X170090Y97819D01*
X169302Y98429D01*
X168489Y99007D01*
X167653Y99552D01*
X166796Y100062D01*
X165919Y100537D01*
X165024Y100977D01*
X164111Y101379D01*
X163183Y101745D01*
X162241Y102072D01*
X161287Y102361D01*
X160321Y102611D01*
X159346Y102822D01*
X158364Y102992D01*
X157375Y103123D01*
X156382Y103214D01*
X155385Y103265D01*
X154388Y103275D01*
X153391Y103245D01*
X152396Y103174D01*
X151405Y103063D01*
X150419Y102912D01*
X149440Y102721D01*
X148470Y102491D01*
X147510Y102221D01*
X146561Y101913D01*
X145626Y101567D01*
X144705Y101183D01*
X143801Y100762D01*
X142915Y100304D01*
X142048Y99812D01*
X141201Y99284D01*
X140377Y98722D01*
X139576Y98128D01*
X138800Y97502D01*
X138049Y96844D01*
X137327Y96157D01*
X136632Y95441D01*
X135967Y94698D01*
X135333Y93928D01*
X134731Y93133D01*
X134161Y92315D01*
X133625Y91474D01*
X133123Y90611D01*
X132657Y89730D01*
X132227Y88830D01*
X131833Y87913D01*
X131477Y86982D01*
X131160Y86036D01*
X130880Y85079D01*
X130640Y84111D01*
X130439Y83134D01*
X130279Y82149D01*
X130157Y81159D01*
X130077Y80165D01*
X130036Y79169D01*
Y78171D01*
X130077Y77175D01*
X130157Y76181D01*
X130279Y75191D01*
X130439Y74206D01*
X130640Y73229D01*
X130880Y72261D01*
X131160Y71304D01*
X131477Y70358D01*
X131833Y69427D01*
X132227Y68510D01*
X132657Y67610D01*
X133123Y66729D01*
X133625Y65866D01*
X134161Y65025D01*
X134731Y64207D01*
X135333Y63412D01*
X135967Y62642D01*
X136632Y61899D01*
X137327Y61183D01*
X138050Y60496D01*
X138800Y59838D01*
X139576Y59212D01*
X140377Y58618D01*
X141201Y58056D01*
X142048Y57529D01*
X142915Y57036D01*
X143801Y56578D01*
X144705Y56157D01*
X145626Y55773D01*
X146561Y55427D01*
X147510Y55119D01*
X148470Y54849D01*
X149440Y54619D01*
X150419Y54428D01*
X151405Y54277D01*
X152396Y54166D01*
X153391Y54095D01*
X154388Y54065D01*
X155386Y54075D01*
X156382Y54126D01*
X157375Y54216D01*
X158364Y54347D01*
X159346Y54519D01*
X160321Y54729D01*
X161287Y54979D01*
X162241Y55268D01*
X163183Y55595D01*
X164111Y55961D01*
X165024Y56363D01*
X165919Y56803D01*
X166796Y57278D01*
X167653Y57788D01*
X168489Y58333D01*
X169302Y58911D01*
X170090Y59521D01*
X170854Y60163D01*
X171590Y60836D01*
X172299Y61537D01*
X172979Y62267D01*
X173629Y63024D01*
X174247Y63806D01*
X174833Y64613D01*
X175387Y65443D01*
X175905Y66295D01*
X176390Y67167D01*
X176838Y68058D01*
X177250Y68966D01*
X177624Y69891D01*
X177961Y70829D01*
X178260Y71781D01*
X178519Y72744D01*
X178740Y73717D01*
X178921Y74698D01*
X179062Y75685D01*
X179163Y76677D01*
X179224Y77673D01*
X179244Y78670D01*
X14806Y265403D02*
X14634Y266374D01*
X14141Y267228D01*
X13386Y267862D01*
X12460Y268199D01*
X11474D01*
X10547Y267862D01*
X9792Y267228D01*
X9299Y266374D01*
X9128Y265403D01*
X9299Y264432D01*
X9792Y263578D01*
X10547Y262944D01*
X11474Y262607D01*
X12460D01*
X13386Y262944D01*
X14141Y263578D01*
X14634Y264432D01*
X14806Y265403D01*
X14965D02*
X14803Y266377D01*
X14333Y267245D01*
X13607Y267913D01*
X12703Y268310D01*
X11719Y268391D01*
X10762Y268149D01*
X9936Y267609D01*
X9330Y266830D01*
X9009Y265897D01*
Y264910D01*
X9330Y263976D01*
X9936Y263197D01*
X10762Y262657D01*
X11719Y262415D01*
X12703Y262496D01*
X13607Y262893D01*
X14333Y263562D01*
X14803Y264429D01*
X14965Y265403D01*
X140172Y237231D02*
Y258029D01*
X140739Y123401D02*
Y144199D01*
X132337Y68271D02*
Y89069D01*
X108114Y205496D02*
Y211008D01*
X96303D02*
X108114D01*
X96303Y205496D02*
Y211008D01*
Y205496D02*
X108114D01*
X67185Y145960D02*
Y149700D01*
X72795Y145960D02*
Y149700D01*
X65905Y145960D02*
X72795D01*
X65905Y149700D02*
X72795D01*
X71515Y145960D02*
Y149700D01*
X65905Y145960D02*
Y149700D01*
X154679Y153314D02*
Y158826D01*
X163341Y153314D02*
Y158826D01*
X154679Y153314D02*
X163341D01*
X154679Y158826D02*
X163341D01*
X214294Y81090D02*
X263113D01*
X214294Y129909D02*
X263113D01*
Y81090D02*
Y129909D01*
X214294Y81090D02*
Y129909D01*
X2911Y262253D02*
Y297687D01*
Y262253D02*
X70628D01*
Y297687D01*
X2911D02*
X70628D01*
X140654Y230060D02*
X146166D01*
X140654Y221399D02*
X146166D01*
X140654D02*
Y230060D01*
X146166Y221399D02*
Y230060D01*
X106260Y204971D02*
Y208711D01*
X111871Y204971D02*
Y208711D01*
X106260Y204971D02*
X113150D01*
X106260Y208711D02*
X113150D01*
Y204971D02*
Y208711D01*
X107540Y204971D02*
Y208711D01*
X118187Y205706D02*
X121927D01*
X118187Y200096D02*
X121927D01*
Y206986D01*
X118187Y200096D02*
Y206986D01*
Y201376D02*
X121927D01*
X118187Y206986D02*
X121927D01*
X106260Y197831D02*
Y201571D01*
X111871Y197831D02*
Y201571D01*
X106260Y197831D02*
X113150D01*
X106260Y201571D02*
X113150D01*
Y197831D02*
Y201571D01*
X107540Y197831D02*
Y201571D01*
X105935Y181325D02*
Y185065D01*
X111545Y181325D02*
Y185065D01*
X105935Y181325D02*
X112825D01*
X105935Y185065D02*
X112825D01*
Y181325D02*
Y185065D01*
X107214Y181325D02*
Y185065D01*
X117861Y181870D02*
X121601D01*
X117861Y176260D02*
X121601D01*
Y183150D01*
X117861Y176260D02*
Y183150D01*
Y177540D02*
X121601D01*
X117861Y183150D02*
X121601D01*
X107093Y174222D02*
Y177962D01*
X112704Y174222D02*
Y177962D01*
X105814D02*
X112704D01*
X105814Y174222D02*
X112704D01*
X111424D02*
Y177962D01*
X105814Y174222D02*
Y177962D01*
X93941Y205031D02*
Y208771D01*
X99551Y205031D02*
Y208771D01*
X92661D02*
X99551D01*
X92661Y205031D02*
X99551D01*
X98271D02*
Y208771D01*
X92661Y205031D02*
Y208771D01*
X93941Y197927D02*
Y201668D01*
X99551Y197927D02*
Y201668D01*
X92661D02*
X99551D01*
X92661Y197927D02*
X99551D01*
X98271D02*
Y201668D01*
X92661Y197927D02*
Y201668D01*
X93615Y181435D02*
Y185175D01*
X99225Y181435D02*
Y185175D01*
X92335D02*
X99225D01*
X92335Y181435D02*
X99225D01*
X97946D02*
Y185175D01*
X92335Y181435D02*
Y185175D01*
X93494Y174165D02*
Y177905D01*
X99104Y174165D02*
Y177905D01*
X92214D02*
X99104D01*
X92214Y174165D02*
X99104D01*
X97825D02*
Y177905D01*
X92214Y174165D02*
Y177905D01*
X83884Y206544D02*
X87625D01*
X83884Y200934D02*
X87625D01*
X83884Y199655D02*
Y206544D01*
X87625Y199655D02*
Y206544D01*
X83884Y199655D02*
X87625D01*
X83884Y205265D02*
X87625D01*
X83438Y183260D02*
X87178D01*
X83438Y177650D02*
X87178D01*
X83438Y176370D02*
Y183260D01*
X87178Y176370D02*
Y183260D01*
X83438Y176370D02*
X87178D01*
X83438Y181981D02*
X87178D01*
X76781Y206434D02*
X80521D01*
X76781Y199545D02*
X80521D01*
X76781D02*
Y206434D01*
X80521Y199545D02*
Y206434D01*
X76335Y182890D02*
X80075D01*
X76335Y176000D02*
X80075D01*
X76335D02*
Y182890D01*
X80075Y176000D02*
Y182890D01*
X78030Y99145D02*
X81770D01*
X78030Y93535D02*
X81770D01*
Y92255D02*
Y99145D01*
X78030Y92255D02*
Y99145D01*
Y92255D02*
X81770D01*
X78030Y97865D02*
X81770D01*
X161399Y222094D02*
X170061D01*
X161399Y227606D02*
X170061D01*
X161399Y222094D02*
Y227606D01*
X170061Y222094D02*
Y227606D01*
X21924Y83017D02*
Y88529D01*
X33735D01*
Y83017D02*
Y88529D01*
X21924Y83017D02*
X33735D01*
X33804Y71625D02*
Y75366D01*
X39414Y71625D02*
Y75366D01*
X32524D02*
X39414D01*
X32524Y71625D02*
X39414D01*
X38135D02*
Y75366D01*
X32524Y71625D02*
Y75366D01*
X30899Y60979D02*
X34639D01*
X30899Y66589D02*
X34639D01*
X30899Y59699D02*
Y66589D01*
X34639Y59699D02*
Y66589D01*
X30899Y65309D02*
X34639D01*
X30899Y59699D02*
X34639D01*
X34604Y50674D02*
Y54414D01*
X40214Y50674D02*
Y54414D01*
X33324D02*
X40214D01*
X33324Y50674D02*
X40214D01*
X38935D02*
Y54414D01*
X33324Y50674D02*
Y54414D01*
X34745Y136110D02*
Y139850D01*
X29135Y136110D02*
Y139850D01*
X36025D01*
X29135Y136110D02*
X36025D01*
X30415D02*
Y139850D01*
X36025Y136110D02*
Y139850D01*
X34865Y126180D02*
Y129920D01*
X29255Y126180D02*
Y129920D01*
X36145D01*
X29255Y126180D02*
X36145D01*
X30535D02*
Y129920D01*
X36145Y126180D02*
Y129920D01*
X115343Y216833D02*
Y220573D01*
X120953Y216833D02*
Y220573D01*
X114063Y216833D02*
X120953D01*
X114063Y220573D02*
X120953D01*
X119674Y216833D02*
Y220573D01*
X114063Y216833D02*
Y220573D01*
X112338Y211796D02*
X116078D01*
X112338Y206186D02*
X116078D01*
Y204907D02*
Y211796D01*
X112338Y204907D02*
Y211796D01*
Y204907D02*
X116078D01*
X112338Y210517D02*
X116078D01*
X83943Y201322D02*
Y205062D01*
X89553Y201322D02*
Y205062D01*
X82663Y201322D02*
X89553D01*
X82663Y205062D02*
X89553D01*
X88273Y201322D02*
Y205062D01*
X82663Y201322D02*
Y205062D01*
X129341Y181360D02*
Y185100D01*
X123731Y181360D02*
Y185100D01*
X130621D01*
X123731Y181360D02*
X130621D01*
X125011D02*
Y185100D01*
X130621Y181360D02*
Y185100D01*
X115742Y181325D02*
Y185065D01*
X110132Y181325D02*
Y185065D01*
X117022D01*
X110132Y181325D02*
X117022D01*
X111411D02*
Y185065D01*
X117022Y181325D02*
Y185065D01*
X91361Y189000D02*
Y192740D01*
X96971Y189000D02*
Y192740D01*
X90082Y189000D02*
X96971D01*
X90082Y192740D02*
X96971D01*
X95692Y189000D02*
Y192740D01*
X90082Y189000D02*
Y192740D01*
X104961Y188945D02*
Y192685D01*
X110571Y188945D02*
Y192685D01*
X103681Y188945D02*
X110571D01*
X103681Y192685D02*
X110571D01*
X109291Y188945D02*
Y192685D01*
X103681Y188945D02*
Y192685D01*
X104928Y174222D02*
Y177962D01*
X110538Y174222D02*
Y177962D01*
X103648Y174222D02*
X110538D01*
X103648Y177962D02*
X110538D01*
X109259Y174222D02*
Y177962D01*
X103648Y174222D02*
Y177962D01*
X91318Y174165D02*
Y177905D01*
X96928Y174165D02*
Y177905D01*
X90038Y174165D02*
X96928D01*
X90038Y177905D02*
X96928D01*
X95649Y174165D02*
Y177905D01*
X90038Y174165D02*
Y177905D01*
X113804Y83395D02*
X117544D01*
X113804Y77785D02*
X117544D01*
Y76506D02*
Y83395D01*
X113804Y76506D02*
Y83395D01*
Y76506D02*
X117544D01*
X113804Y82116D02*
X117544D01*
X117135Y64930D02*
Y68670D01*
X122745Y64930D02*
Y68670D01*
X115855Y64930D02*
X122745D01*
X115855Y68670D02*
X122745D01*
X121465Y64930D02*
Y68670D01*
X115855Y64930D02*
Y68670D01*
X113370Y45214D02*
Y52104D01*
X109630Y45214D02*
Y52104D01*
X113370D01*
X109630Y45214D02*
X113370D01*
X102527Y45435D02*
X106267D01*
X102527Y51045D02*
X106267D01*
Y44155D02*
Y51045D01*
X102527Y44155D02*
Y51045D01*
Y49765D02*
X106267D01*
X102527Y44155D02*
X106267D01*
X95130Y50945D02*
X98870D01*
X95130Y45335D02*
X98870D01*
Y44055D02*
Y50945D01*
X95130Y44055D02*
Y50945D01*
Y44055D02*
X98870D01*
X95130Y49665D02*
X98870D01*
X84830Y48435D02*
X88570D01*
X84830Y54045D02*
X88570D01*
Y47155D02*
Y54045D01*
X84830Y47155D02*
Y54045D01*
Y52765D02*
X88570D01*
X84830Y47155D02*
X88570D01*
X77727Y48435D02*
X81467D01*
X77727Y54045D02*
X81467D01*
Y47155D02*
Y54045D01*
X77727Y47155D02*
Y54045D01*
Y52765D02*
X81467D01*
X77727Y47155D02*
X81467D01*
X63755Y61330D02*
Y65070D01*
X69365Y61330D02*
Y65070D01*
X63755D02*
X70645D01*
X63755Y61330D02*
X70645D01*
Y65070D01*
X65035Y61330D02*
Y65070D01*
X65435Y49130D02*
Y52870D01*
X71045Y49130D02*
Y52870D01*
X64155Y49130D02*
X71045D01*
X64155Y52870D02*
X71045D01*
X69765Y49130D02*
Y52870D01*
X64155Y49130D02*
Y52870D01*
X121004Y83395D02*
X124744D01*
X121004Y77785D02*
X124744D01*
Y76506D02*
Y83395D01*
X121004Y76506D02*
Y83395D01*
Y76506D02*
X124744D01*
X121004Y82116D02*
X124744D01*
X118630Y48355D02*
X122370D01*
X118630Y53965D02*
X122370D01*
X118630Y48355D02*
Y55245D01*
X122370Y48355D02*
Y55245D01*
X118630D02*
X122370D01*
X118630Y49635D02*
X122370D01*
X193584Y166319D02*
X199096D01*
X193584Y174981D02*
X199096D01*
X193584Y166319D02*
Y174981D01*
X199096Y166319D02*
Y174981D01*
X193737Y215131D02*
X199249D01*
X193737Y206469D02*
X199249D01*
Y215131D01*
X193737Y206469D02*
Y215131D01*
X214383Y247590D02*
Y296410D01*
X263202Y247590D02*
Y296410D01*
X214383D02*
X263202D01*
X214383Y247590D02*
X263202D01*
X214145Y192591D02*
Y241409D01*
X262964Y192591D02*
Y241409D01*
X214145D02*
X262964D01*
X214145Y192591D02*
X262964D01*
X214383Y135591D02*
Y184409D01*
X263202Y135591D02*
Y184409D01*
X214383D02*
X263202D01*
X214383Y135591D02*
X263202D01*
X202415Y215151D02*
X207927D01*
X202415Y206489D02*
X207927D01*
Y215151D01*
X202415Y206489D02*
Y215151D01*
X202262Y166350D02*
X207774D01*
X202262Y175011D02*
X207774D01*
X202262Y166350D02*
Y175011D01*
X207774Y166350D02*
Y175011D01*
X197530Y230845D02*
X201270D01*
X197530Y223955D02*
X201270D01*
Y230845D01*
X197530Y223955D02*
Y230845D01*
X190230Y230745D02*
X193970D01*
X190230Y223855D02*
X193970D01*
Y230745D01*
X190230Y223855D02*
Y230745D01*
X190730Y157145D02*
X194470D01*
X190730Y150255D02*
X194470D01*
Y157145D01*
X190730Y150255D02*
Y157145D01*
X198230Y157187D02*
X201970D01*
X198230Y150298D02*
X201970D01*
Y157187D01*
X198230Y150298D02*
Y157187D01*
X298378Y82831D02*
X303693D01*
X298378Y74169D02*
X303693D01*
X298378D02*
Y82831D01*
X303693Y74169D02*
Y82831D01*
X303791Y49268D02*
Y57732D01*
X298280Y49268D02*
Y57732D01*
Y49268D02*
X303791D01*
X298280Y57732D02*
X303791D01*
X283791Y61268D02*
Y69732D01*
X278279Y61268D02*
Y69732D01*
Y61268D02*
X283791D01*
X278279Y69732D02*
X283791D01*
X295097Y158268D02*
Y166732D01*
X289586Y158268D02*
Y166732D01*
Y158268D02*
X295097D01*
X289586Y166732D02*
X295097D01*
X289843Y143276D02*
X295158D01*
X289843Y134614D02*
X295158D01*
X289843D02*
Y143276D01*
X295158Y134614D02*
Y143276D01*
X317597Y144268D02*
Y152732D01*
X312086Y144268D02*
Y152732D01*
Y144268D02*
X317597D01*
X312086Y152732D02*
X317597D01*
X305810Y212768D02*
Y221232D01*
X300298Y212768D02*
Y221232D01*
Y212768D02*
X305810D01*
X300298Y221232D02*
X305810D01*
X300397Y245776D02*
X305712D01*
X300397Y237114D02*
X305712D01*
X300397D02*
Y245776D01*
X305712Y237114D02*
Y245776D01*
X294810Y321013D02*
Y329477D01*
X289298Y321013D02*
Y329477D01*
Y321013D02*
X294810D01*
X289298Y329477D02*
X294810D01*
X288897Y306131D02*
X294212D01*
X288897Y297469D02*
X294212D01*
X288897D02*
Y306131D01*
X294212Y297469D02*
Y306131D01*
X284310Y225323D02*
Y233787D01*
X278798Y225323D02*
Y233787D01*
Y225323D02*
X284310D01*
X278798Y233787D02*
X284310D01*
X317310Y308958D02*
Y317422D01*
X311798Y308958D02*
Y317422D01*
Y308958D02*
X317310D01*
X311798Y317422D02*
X317310D01*
X165492Y162441D02*
X189508D01*
Y217559D01*
X165492D02*
X189508D01*
X165492Y162441D02*
Y217559D01*
Y164941D02*
X167992Y162441D01*
M02*
