G04*
G04 #@! TF.GenerationSoftware,Altium Limited,Altium Designer,20.0.13 (296)*
G04*
G04 Layer_Color=32768*
%FSLAX25Y25*%
%MOIN*%
G70*
G01*
G75*
%ADD10C,0.00787*%
%ADD16C,0.00394*%
%ADD101C,0.00197*%
D10*
X200810Y20394D02*
X205810D01*
X203310Y17894D02*
Y22894D01*
X184310Y394D02*
Y40894D01*
X222310D01*
X184310Y394D02*
X222310D01*
Y40894D01*
X368394Y268850D02*
Y273850D01*
X365894Y271350D02*
X370894D01*
X347894Y252350D02*
X388394D01*
X347894D02*
Y290350D01*
X388394Y252350D02*
Y290350D01*
X347894D02*
X388394D01*
X367634Y105390D02*
Y110390D01*
X365134Y107890D02*
X370134D01*
X347134Y88890D02*
X387634D01*
X347134D02*
Y126890D01*
X387634Y88890D02*
Y126890D01*
X347134D02*
X387634D01*
D16*
X162472Y247630D02*
Y252551D01*
X157551Y247630D02*
X162472D01*
Y242709D02*
Y247630D01*
X167394D01*
X163040Y133800D02*
X167961D01*
X163040Y128879D02*
Y133800D01*
X158119D02*
X163040D01*
Y138721D01*
X154638Y78670D02*
X159559D01*
X154638Y73749D02*
Y78670D01*
X149716D02*
X154638D01*
Y83591D01*
X95318Y200574D02*
X109098D01*
X95318Y215929D02*
X109098D01*
X95318Y200574D02*
Y215929D01*
X109098Y200574D02*
Y215929D01*
X102208Y206283D02*
Y210220D01*
X100240Y208252D02*
X104177D01*
X69350Y145960D02*
Y149700D01*
X67480Y147830D02*
X71220D01*
X63248Y144976D02*
X75452D01*
X63248Y150684D02*
X75452D01*
Y144976D02*
Y150684D01*
X63248Y144976D02*
Y150684D01*
X272464Y350533D02*
X323645D01*
X272464Y271792D02*
Y350533D01*
Y271792D02*
X323645D01*
Y350533D01*
X272251Y188020D02*
X323432D01*
X272251Y109280D02*
Y188020D01*
Y109280D02*
X323432D01*
Y188020D01*
X271945Y105953D02*
X323126D01*
X271945Y27213D02*
Y105953D01*
Y27213D02*
X323126D01*
Y105953D01*
X272464Y270398D02*
X323645D01*
X272464Y191657D02*
Y270398D01*
Y191657D02*
X323645D01*
Y270398D01*
X157042Y156070D02*
X160978D01*
X159010Y154102D02*
Y158038D01*
X238704Y103532D02*
Y107468D01*
X236735Y105500D02*
X240672D01*
X41100Y279970D02*
Y283907D01*
X37163Y279970D02*
X41100D01*
Y276033D02*
Y279970D01*
X45037D01*
X143410Y223761D02*
Y227698D01*
X141442Y225730D02*
X145378D01*
X103603Y203987D02*
Y209695D01*
X115808Y203987D02*
Y209695D01*
X103603Y203987D02*
X115808D01*
X103603Y209695D02*
X115808D01*
X107835Y206841D02*
X111575D01*
X109705Y204971D02*
Y208711D01*
X118187Y203541D02*
X121927D01*
X120057Y201671D02*
Y205411D01*
X122911Y197439D02*
Y209643D01*
X117202Y197439D02*
Y209643D01*
Y197439D02*
X122911D01*
X117202Y209643D02*
X122911D01*
X103603Y196847D02*
Y202555D01*
X115808Y196847D02*
Y202555D01*
X103603Y196847D02*
X115808D01*
X103603Y202555D02*
X115808D01*
X107835Y199701D02*
X111575D01*
X109705Y197831D02*
Y201571D01*
X103277Y180341D02*
Y186049D01*
X115482Y180341D02*
Y186049D01*
X103277Y180341D02*
X115482D01*
X103277Y186049D02*
X115482D01*
X107510Y183195D02*
X111250D01*
X109380Y181325D02*
Y185065D01*
X117861Y179705D02*
X121601D01*
X119731Y177835D02*
Y181575D01*
X122585Y173603D02*
Y185807D01*
X116877Y173603D02*
Y185807D01*
Y173603D02*
X122585D01*
X116877Y185807D02*
X122585D01*
X109259Y174222D02*
Y177962D01*
X107389Y176092D02*
X111129D01*
X103156Y178946D02*
X115361D01*
X103156Y173237D02*
X115361D01*
Y178946D01*
X103156Y173237D02*
Y178946D01*
X96106Y205031D02*
Y208771D01*
X94236Y206901D02*
X97976D01*
X90004Y209755D02*
X102208D01*
X90004Y204047D02*
X102208D01*
Y209755D01*
X90004Y204047D02*
Y209755D01*
X96106Y197927D02*
Y201668D01*
X94236Y199798D02*
X97976D01*
X90004Y202652D02*
X102208D01*
X90004Y196943D02*
X102208D01*
Y202652D01*
X90004Y196943D02*
Y202652D01*
X95780Y181435D02*
Y185175D01*
X93910Y183305D02*
X97650D01*
X89678Y186159D02*
X101883D01*
X89678Y180451D02*
X101883D01*
Y186159D01*
X89678Y180451D02*
Y186159D01*
X95659Y174165D02*
Y177905D01*
X93789Y176035D02*
X97529D01*
X89557Y178889D02*
X101762D01*
X89557Y173181D02*
X101762D01*
Y178889D01*
X89557Y173181D02*
Y178889D01*
X82900Y209202D02*
X88609D01*
X82900Y196997D02*
X88609D01*
X82900D02*
Y209202D01*
X88609Y196997D02*
Y209202D01*
X85755Y201229D02*
Y204970D01*
X83884Y203099D02*
X87625D01*
X82454Y185917D02*
X88162D01*
X82454Y173713D02*
X88162D01*
X82454D02*
Y185917D01*
X88162Y173713D02*
Y185917D01*
X85308Y177945D02*
Y181685D01*
X83438Y179815D02*
X87178D01*
X78651Y201119D02*
Y204859D01*
X76781Y202989D02*
X80521D01*
X78205Y177575D02*
Y181315D01*
X76335Y179445D02*
X80075D01*
X77046Y101802D02*
X82754D01*
X77046Y89598D02*
X82754D01*
Y101802D01*
X77046Y89598D02*
Y101802D01*
X79900Y93830D02*
Y97570D01*
X78030Y95700D02*
X81770D01*
X165730Y222882D02*
Y226818D01*
X163761Y224850D02*
X167699D01*
X20939Y78096D02*
X34719D01*
X20939Y93450D02*
X34719D01*
Y78096D02*
Y93450D01*
X20939Y78096D02*
Y93450D01*
X27829Y83805D02*
Y87742D01*
X25861Y85773D02*
X29798D01*
X35969Y71625D02*
Y75366D01*
X34099Y73496D02*
X37839D01*
X29867Y76350D02*
X42072D01*
X29867Y70641D02*
X42072D01*
Y76350D01*
X29867Y70641D02*
Y76350D01*
X30899Y63144D02*
X34639D01*
X32769Y61274D02*
Y65014D01*
X29915Y57042D02*
Y69247D01*
X35624Y57042D02*
Y69247D01*
X29915D02*
X35624D01*
X29915Y57042D02*
X35624D01*
X36769Y50674D02*
Y54414D01*
X34899Y52544D02*
X38639D01*
X30667Y55398D02*
X42872D01*
X30667Y49690D02*
X42872D01*
Y55398D01*
X30667Y49690D02*
Y55398D01*
X32580Y136110D02*
Y139850D01*
X30710Y137980D02*
X34450D01*
X26478Y140834D02*
X38682D01*
X26478Y135126D02*
X38682D01*
X26478D02*
Y140834D01*
X38682Y135126D02*
Y140834D01*
X32700Y126180D02*
Y129920D01*
X30830Y128050D02*
X34570D01*
X26598Y130904D02*
X38802D01*
X26598Y125196D02*
X38802D01*
X26598D02*
Y130904D01*
X38802Y125196D02*
Y130904D01*
X117508Y216833D02*
Y220573D01*
X115638Y218703D02*
X119378D01*
X111406Y215849D02*
X123611D01*
X111406Y221557D02*
X123611D01*
Y215849D02*
Y221557D01*
X111406Y215849D02*
Y221557D01*
X111354Y214454D02*
X117063D01*
X111354Y202249D02*
X117063D01*
Y214454D01*
X111354Y202249D02*
Y214454D01*
X114208Y206482D02*
Y210222D01*
X112338Y208352D02*
X116078D01*
X86108Y201322D02*
Y205062D01*
X84238Y203192D02*
X87978D01*
X80006Y200337D02*
X92210D01*
X80006Y206046D02*
X92210D01*
Y200337D02*
Y206046D01*
X80006Y200337D02*
Y206046D01*
X127176Y181360D02*
Y185100D01*
X125306Y183230D02*
X129046D01*
X121074Y186084D02*
X133279D01*
X121074Y180376D02*
X133279D01*
X121074D02*
Y186084D01*
X133279Y180376D02*
Y186084D01*
X113577Y181325D02*
Y185065D01*
X111707Y183195D02*
X115447D01*
X107474Y186049D02*
X119679D01*
X107474Y180341D02*
X119679D01*
X107474D02*
Y186049D01*
X119679Y180341D02*
Y186049D01*
X93527Y189000D02*
Y192740D01*
X91657Y190870D02*
X95397D01*
X87424Y188016D02*
X99629D01*
X87424Y193724D02*
X99629D01*
Y188016D02*
Y193724D01*
X87424Y188016D02*
Y193724D01*
X107126Y188945D02*
Y192685D01*
X105256Y190815D02*
X108996D01*
X101024Y187961D02*
X113228D01*
X101024Y193669D02*
X113228D01*
Y187961D02*
Y193669D01*
X101024Y187961D02*
Y193669D01*
X107093Y174222D02*
Y177962D01*
X105223Y176092D02*
X108963D01*
X100991Y173237D02*
X113196D01*
X100991Y178946D02*
X113196D01*
Y173237D02*
Y178946D01*
X100991Y173237D02*
Y178946D01*
X93483Y174165D02*
Y177905D01*
X91613Y176035D02*
X95353D01*
X87381Y173181D02*
X99586D01*
X87381Y178889D02*
X99586D01*
Y173181D02*
Y178889D01*
X87381Y173181D02*
Y178889D01*
X112820Y86053D02*
X118528D01*
X112820Y73848D02*
X118528D01*
Y86053D01*
X112820Y73848D02*
Y86053D01*
X115674Y78080D02*
Y81821D01*
X113804Y79951D02*
X117544D01*
X119300Y64930D02*
Y68670D01*
X117430Y66800D02*
X121170D01*
X113198Y63946D02*
X125402D01*
X113198Y69654D02*
X125402D01*
Y63946D02*
Y69654D01*
X113198Y63946D02*
Y69654D01*
X109630Y48659D02*
X113370D01*
X111500Y46789D02*
Y50529D01*
X102527Y47600D02*
X106267D01*
X104397Y45730D02*
Y49470D01*
X107251Y41498D02*
Y53702D01*
X101542Y41498D02*
Y53702D01*
X107251D01*
X101542Y41498D02*
X107251D01*
X94146Y53602D02*
X99854D01*
X94146Y41398D02*
X99854D01*
Y53602D01*
X94146Y41398D02*
Y53602D01*
X97000Y45630D02*
Y49370D01*
X95130Y47500D02*
X98870D01*
X84830Y50600D02*
X88570D01*
X86700Y48730D02*
Y52470D01*
X89554Y44498D02*
Y56702D01*
X83846Y44498D02*
Y56702D01*
X89554D01*
X83846Y44498D02*
X89554D01*
X77727Y50600D02*
X81467D01*
X79597Y48730D02*
Y52470D01*
X82451Y44498D02*
Y56702D01*
X76742Y44498D02*
Y56702D01*
X82451D01*
X76742Y44498D02*
X82451D01*
X61098Y60346D02*
Y66054D01*
X73302Y60346D02*
Y66054D01*
X61098D02*
X73302D01*
X61098Y60346D02*
X73302D01*
X65330Y63200D02*
X69070D01*
X67200Y61330D02*
Y65070D01*
X67600Y49130D02*
Y52870D01*
X65730Y51000D02*
X69470D01*
X61498Y48146D02*
X73702D01*
X61498Y53854D02*
X73702D01*
Y48146D02*
Y53854D01*
X61498Y48146D02*
Y53854D01*
X120020Y86053D02*
X125728D01*
X120020Y73848D02*
X125728D01*
Y86053D01*
X120020Y73848D02*
Y86053D01*
X122874Y78080D02*
Y81821D01*
X121004Y79951D02*
X124744D01*
X117646Y45698D02*
X123354D01*
X117646Y57902D02*
X123354D01*
X117646Y45698D02*
Y57902D01*
X123354Y45698D02*
Y57902D01*
X120500Y49930D02*
Y53670D01*
X118630Y51800D02*
X122370D01*
X196340Y168682D02*
Y172618D01*
X194371Y170650D02*
X198309D01*
X196493Y208832D02*
Y212769D01*
X194525Y210800D02*
X198462D01*
X236824Y272000D02*
X240761D01*
X238793Y270031D02*
Y273969D01*
X236586Y217000D02*
X240523D01*
X238554Y215032D02*
Y218969D01*
X236824Y160000D02*
X240761D01*
X238793Y158031D02*
Y161969D01*
X205171Y208852D02*
Y212789D01*
X203203Y210820D02*
X207140D01*
X205018Y168712D02*
Y172649D01*
X203050Y170680D02*
X206987D01*
X199400Y225530D02*
Y229270D01*
X197530Y227400D02*
X201270D01*
X192100Y225430D02*
Y229170D01*
X190230Y227300D02*
X193970D01*
X192600Y151830D02*
Y155570D01*
X190730Y153700D02*
X194470D01*
X200100Y151872D02*
Y155613D01*
X198230Y153743D02*
X201970D01*
X301035Y76531D02*
Y80468D01*
X299067Y78500D02*
X303004D01*
X304776Y46610D02*
Y60390D01*
X299067Y53500D02*
X303004D01*
X301035Y55665D02*
X301035Y51335D01*
X297205Y46610D02*
Y60390D01*
Y46610D02*
X304776D01*
X297205Y60390D02*
X304776D01*
X284776Y58610D02*
Y72390D01*
X279067Y65500D02*
X283004D01*
X281035Y67665D02*
X281035Y63335D01*
X277205Y58610D02*
Y72390D01*
Y58610D02*
X284776D01*
X277205Y72390D02*
X284776D01*
X296082Y155610D02*
Y169390D01*
X290373Y162500D02*
X294310D01*
X292341Y164665D02*
X292341Y160335D01*
X288511Y155610D02*
Y169390D01*
Y155610D02*
X296082D01*
X288511Y169390D02*
X296082D01*
X292500Y136976D02*
Y140913D01*
X290531Y138945D02*
X294468D01*
X318582Y141610D02*
Y155390D01*
X312873Y148500D02*
X316810D01*
X314842Y150665D02*
X314842Y146335D01*
X311012Y141610D02*
Y155390D01*
Y141610D02*
X318582D01*
X311012Y155390D02*
X318582D01*
X306794Y210110D02*
Y223890D01*
X301086Y217000D02*
X305023D01*
X303054Y219165D02*
X303054Y214835D01*
X299224Y210110D02*
Y223890D01*
Y210110D02*
X306794D01*
X299224Y223890D02*
X306794D01*
X303054Y239476D02*
Y243413D01*
X301086Y241445D02*
X305023D01*
X295794Y318355D02*
Y332135D01*
X290086Y325245D02*
X294023D01*
X292054Y327410D02*
X292054Y323080D01*
X288224Y318355D02*
Y332135D01*
Y318355D02*
X295794D01*
X288224Y332135D02*
X295794D01*
X291554Y299832D02*
Y303769D01*
X289586Y301800D02*
X293523D01*
X285294Y222665D02*
Y236445D01*
X279586Y229555D02*
X283523D01*
X281554Y231720D02*
X281554Y227390D01*
X277724Y222665D02*
Y236445D01*
Y222665D02*
X285294D01*
X277724Y236445D02*
X285294D01*
X318294Y306300D02*
Y320080D01*
X312586Y313190D02*
X316523D01*
X314554Y315355D02*
X314554Y311025D01*
X310724Y306300D02*
Y320080D01*
Y306300D02*
X318294D01*
X310724Y320080D02*
X318294D01*
D101*
X137079Y222236D02*
Y273024D01*
X187866D01*
Y222236D02*
Y273024D01*
X137079Y222236D02*
X187866D01*
X137646Y108406D02*
X188434D01*
Y159194D01*
X137646D02*
X188434D01*
X137646Y108406D02*
Y159194D01*
X129244Y53276D02*
X180031D01*
Y104064D01*
X129244D02*
X180031D01*
X129244Y53276D02*
Y104064D01*
X152317Y152330D02*
Y159810D01*
X165703Y152330D02*
Y159810D01*
X152317Y152330D02*
X165703D01*
X152317Y159810D02*
X165703D01*
X210259Y79319D02*
X267149D01*
X210259Y131681D02*
X267149D01*
Y79319D02*
Y131681D01*
X210259Y79319D02*
Y131681D01*
X2124Y258710D02*
Y301230D01*
Y258710D02*
X71415D01*
Y301230D01*
X2124D02*
X71415D01*
X139670Y232422D02*
X147150D01*
X139670Y219037D02*
X147150D01*
X139670D02*
Y232422D01*
X147150Y219037D02*
Y232422D01*
X75698Y208304D02*
X81604D01*
X75698Y197675D02*
X81604D01*
X75698D02*
Y208304D01*
X81604Y197675D02*
Y208304D01*
X75252Y184760D02*
X81157D01*
X75252Y174130D02*
X81157D01*
X75252D02*
Y184760D01*
X81157Y174130D02*
Y184760D01*
X159037Y221110D02*
X172423D01*
X159037Y228590D02*
X172423D01*
X159037Y221110D02*
Y228590D01*
X172423Y221110D02*
Y228590D01*
X114453Y43344D02*
Y53974D01*
X108547Y43344D02*
Y53974D01*
X114453D01*
X108547Y43344D02*
X114453D01*
X192600Y163957D02*
X200080D01*
X192600Y177343D02*
X200080D01*
X192600Y163957D02*
Y177343D01*
X200080Y163957D02*
Y177343D01*
X192753Y217493D02*
X200233D01*
X192753Y204107D02*
X200233D01*
Y217493D01*
X192753Y204107D02*
Y217493D01*
X210348Y245819D02*
Y298181D01*
X267238Y245819D02*
Y298181D01*
X210348D02*
X267238D01*
X210348Y245819D02*
X267238D01*
X210109Y190819D02*
Y243181D01*
X266999Y190819D02*
Y243181D01*
X210109D02*
X266999D01*
X210109Y190819D02*
X266999D01*
X210348Y133819D02*
Y186181D01*
X267238Y133819D02*
Y186181D01*
X210348D02*
X267238D01*
X210348Y133819D02*
X267238D01*
X201431Y217513D02*
X208911D01*
X201431Y204127D02*
X208911D01*
Y217513D01*
X201431Y204127D02*
Y217513D01*
X201278Y163988D02*
X208758D01*
X201278Y177373D02*
X208758D01*
X201278Y163988D02*
Y177373D01*
X208758Y163988D02*
Y177373D01*
X196447Y232715D02*
X202353D01*
X196447Y222085D02*
X202353D01*
Y232715D01*
X196447Y222085D02*
Y232715D01*
X189147Y232615D02*
X195053D01*
X189147Y221985D02*
X195053D01*
Y232615D01*
X189147Y221985D02*
Y232615D01*
X189647Y159015D02*
X195553D01*
X189647Y148385D02*
X195553D01*
Y159015D01*
X189647Y148385D02*
Y159015D01*
X197147Y159057D02*
X203053D01*
X197147Y148428D02*
X203053D01*
Y159057D01*
X197147Y148428D02*
Y159057D01*
X297295Y85193D02*
X304776D01*
X297295Y71807D02*
X304776D01*
X297295D02*
Y85193D01*
X304776Y71807D02*
Y85193D01*
X288760Y145638D02*
X296240D01*
X288760Y132252D02*
X296240D01*
X288760D02*
Y145638D01*
X296240Y132252D02*
Y145638D01*
X299314Y248138D02*
X306794D01*
X299314Y234752D02*
X306794D01*
X299314D02*
Y248138D01*
X306794Y234752D02*
Y248138D01*
X287814Y308493D02*
X295294D01*
X287814Y295107D02*
X295294D01*
X287814D02*
Y308493D01*
X295294Y295107D02*
Y308493D01*
X158701Y161260D02*
X196299D01*
Y218740D01*
X158701D02*
X196299D01*
X158701Y161260D02*
Y218740D01*
M02*
