G04*
G04 #@! TF.GenerationSoftware,Altium Limited,Altium Designer,20.0.13 (296)*
G04*
G04 Layer_Color=16711935*
%FSLAX25Y25*%
%MOIN*%
G70*
G01*
G75*
%ADD99C,0.04724*%
%ADD100C,0.00100*%
D99*
X25Y13329D02*
X62Y12335D01*
X174Y11346D01*
X359Y10369D01*
X616Y9408D01*
X945Y8469D01*
X1343Y7557D01*
X1807Y6677D01*
X2337Y5835D01*
X2928Y5034D01*
X3576Y4280D01*
X4280Y3576D01*
X5034Y2928D01*
X5835Y2337D01*
X6677Y1807D01*
X7557Y1343D01*
X8469Y945D01*
X9408Y616D01*
X10369Y359D01*
X11346Y174D01*
X12335Y62D01*
X13329Y25D01*
X386721D02*
X387742Y187D01*
X388663Y656D01*
X389394Y1387D01*
X389863Y2308D01*
X390025Y3329D01*
Y376721D02*
X389863Y377742D01*
X389394Y378663D01*
X388663Y379394D01*
X387742Y379863D01*
X386721Y380025D01*
X13329D02*
X12335Y379988D01*
X11346Y379876D01*
X10369Y379691D01*
X9408Y379434D01*
X8469Y379105D01*
X7557Y378708D01*
X6677Y378243D01*
X5835Y377713D01*
X5034Y377122D01*
X4280Y376473D01*
X3576Y375770D01*
X2928Y375016D01*
X2337Y374215D01*
X1807Y373373D01*
X1343Y372493D01*
X945Y371581D01*
X616Y370642D01*
X359Y369681D01*
X174Y368704D01*
X62Y367715D01*
X25Y366721D01*
X13329Y25D02*
X386721D01*
X390025Y3329D02*
Y376721D01*
X13329Y380025D02*
X386721D01*
X25Y13329D02*
Y366721D01*
D100*
X67403Y74670D02*
X75102D01*
X67403Y70930D02*
Y74670D01*
Y70930D02*
X75102D01*
Y74670D01*
M02*
