M48
;Layer_Color=9474304
;FILE_FORMAT=2:4
INCH,TZ
;TYPE=PLATED
T1F00S00C0.0100
T2F00S00C0.0280
T3F00S00C0.0315
T4F00S00C0.0354
T5F00S00C0.0394
T6F00S00C0.0413
T7F00S00C0.0551
T8F00S00C0.1417
;TYPE=NON_PLATED
T9F00S00C0.0669
%
T01
X8541Y3855
X10476Y3732
X12562Y6176
X7000Y5765
X3059Y9780
X2442Y11542
X7323Y15472
X15638Y16871
X15682Y18660
X15670Y19618
X15686Y20394
X17266Y19732
X17726Y19740
X18166Y19736
X17978Y19393
X17505
X17249Y19054
X17750Y19000
X18229Y18991
X18019Y18673
X17500Y18682
X17747Y18309
X17212Y18284
X18304
X19772Y18307
X19784Y17939
X20162Y17931
X20422Y18175
X20687Y17942
X20649Y15931
X18725Y15862
X19769Y19687
X19780Y20071
X20139Y20085
X20389Y19825
X20671Y20074
X20708Y22342
X18628Y22284
X15276Y17143
X11860Y17020
X11004Y16652
X8094Y17239
X6765Y17615
X6138Y16349
X7678Y18881
X6468Y20180
X5976Y22313
X8819Y22325
X6271Y25250
X4553Y27151
T02
X5315Y4724
X7087Y10630
X8268
X9449
X10630
X11811
X12992
X13583Y11811
X14764
X14173Y12992
X12992
X11811
X12402Y14173
X13583
X14764
X12402Y11811
X11220
X8858Y14173
X14173Y5906
X14764Y4724
X18307
X18898Y5906
X17717Y3543
X18307Y2362
X17126
X23031
X24213
X25394
X24803Y3543
X23622
X24213Y4724
X23031
X23622Y5906
X24213Y7087
X23031
X23622Y8268
X24213Y9449
X23622Y10630
X24213Y11811
X24803Y12992
X25984
X27165
X28346
X28937Y11811
X27756
X28346Y10630
X29528
X30709
Y12992
X27756Y14173
X26575
X25394
X24213
X23622Y15354
Y12992
X27756Y9449
X28937
X28346Y8268
X31890
X31299Y9449
X31890Y10630
X31299Y11811
X31890Y12992
X36614
X37205Y14173
X36024
X36614Y15354
X35433
X37205Y11811
Y9449
X36614Y8268
X35433
X36024Y7087
X37205
X36614Y5906
X35433
X36024Y4724
X37205
X36614Y3543
X35433
X34252
X34843Y4724
Y7087
X31890Y5906
X32480Y2362
X33661
X34843
X36024Y16535
X37205
X36614Y17717
X35433
X36024Y18898
X37205
X36614Y20079
X35433
X36024Y21260
X37205
X36614Y22441
X35433
X36024Y23622
X37205
X36614Y24803
X35433
X34843Y23622
Y21260
Y18898
X31890Y22441
Y24803
X31299Y25984
X31890Y27165
X31299Y28346
X31890Y29528
X35433
X36614
X37205Y30709
X36024
X34843
X37205Y28346
Y25984
X30709Y27165
X29528
X28346
X28937Y28346
X27756
Y30709
X24213
X23031
X21850
X20669
X19488
X18307
X17126
X15945
X16535Y29528
X17717
X18898
X20079
X19488Y28346
X18307
X17126
X15945
X16535Y27165
X17717
X18898
X19488Y25984
X24213
X24803Y24803
X25984
X27165
X28346
X28937Y25984
X27756
X26575Y23622
X25394
X24213
X23622Y24803
Y27165
X24213Y28346
X23622Y29528
X30709
X23622Y22441
X24213Y21260
X24803Y20079
X23622
X24213Y18898
X25394
X24803Y17717
X23622
X24213Y16535
X23031Y18898
X13583Y23622
X12402
X11220
X10039
X8858
X9449Y24803
X10630
X11811
X12992
X14173
X14764Y25984
X13583
X12402
X11220
X10039
X8858
X7677
X8268Y27165
X9449
X10630
X11811
X12992
X14173
X15354
X14764Y28346
X13583
X12402
X11220
X10039
X8858
X7677
X8268Y29528
X9449
X10630
X11811
X12992
X14173
X15354
X14764Y30709
X13583
X12402
X11220
X10039
X8858
X7677
X6496
X5315
X5906Y29528
X7087
X4724
X3543Y24803
X2362
X2953Y23622
X4134
X5315
X1772
X2362Y22441
X1772Y21260
X8268Y24803
Y31890
X9449
X10630
X11811
X12992
X14173
X15354
Y34252
X14173
X12992
X11811
X10630
X9449
X8268
X7087
X5906
X4724
X3543
X2362
X2953Y33071
X4134
X5315
X6496
X7677
X7087Y31890
X5906
X4724
X3543
X2362
X1772Y33071
X4134Y35433
X5315
X6496
X7677
X8858
X10039
X11220
X12402
X13583
X14764
X15354Y36614
X14173
X12992
X11811
X10630
X9449
X8268
X7087
X5906
X4724
X3543
X16535
X17717
X18898
X20079
X21260
X22441
X23622
X24803
X25984
X27165
X28346
X29528
X30709
X28937Y35433
X27756
X26575
X25394
X24213
X23031
X21850
X20669
X19488
X18307
X17126
X15945
X16535Y34252
X17717
X18898
X20079
X21260
X22441
X23622
X24803
X24213Y33071
X23031
X21850
X20669
X21260Y31890
X22441
X23622
X20079
X18898
X17717
X16535
X31299Y35433
X32480
X33661
X34843
X35433Y36614
X34252
X33071
X31890
X35433Y34252
X36614
X37205Y33071
X36024
X34843
X35433Y31890
X36614
T03
X14480Y7867
X15320Y13380
X17288
X16448Y7867
X21803Y17604
X21713Y20297
X17232Y24763
X15263
T04
X4608Y11798
Y12798
Y13798
Y14798
X5608
Y13798
Y12798
Y11798
Y15798
Y16798
Y17798
Y18798
Y19798
Y20798
X4608
Y19798
Y18798
Y17798
Y16798
Y15798
T05
X4930Y1720
X10010Y9150
X21697Y9236
X19415Y11800
X19406Y12786
X21711Y28301
T06
X29754Y3706
Y9611
X29784Y11912
Y17818
X29805Y20150
Y26056
Y28163
Y34069
T07
X19581Y3339
X21081
X35463Y10039
Y11539
X35539Y26385
Y27885
T08
X1575Y1575
X37430
X1575Y36425
X37430
T09
X2732Y27997
X5488
M30
